<?xml version="1.0" encoding="UTF-8" standalone="no"?>
<!DOCTYPE svg PUBLIC "-//W3C//DTD SVG 1.1//EN"
 "http://www.w3.org/Graphics/SVG/1.1/DTD/svg11.dtd">
<!-- Generated by graphviz version 2.40.1 (20161225.0304)
 -->
<!-- Title: dependencies Pages: 1 -->
<svg width="1262pt" height="284pt"
 viewBox="0.00 0.00 1262.00 284.00" xmlns="http://www.w3.org/2000/svg" xmlns:xlink="http://www.w3.org/1999/xlink">
<g id="graph0" class="graph" transform="scale(1 1) rotate(0) translate(4 280)">
<title>dependencies</title>
<polygon fill="#ffffff" stroke="transparent" points="-4,4 -4,-280 1258,-280 1258,4 -4,4"/>
<text text-anchor="start" x="606.0091" y="-42.4" font-family="sans-serif" font-weight="bold" font-size="14.00" fill="#000000">Legend</text>
<polygon fill="#ffffb3" stroke="transparent" points="393,-10 393,-30 413,-30 413,-10 393,-10"/>
<text text-anchor="start" x="416.629" y="-15.4" font-family="sans-serif" font-size="14.00" fill="#000000"> &#160;Declarations</text>
<polygon fill="#8dd3c7" stroke="transparent" points="506,-10 506,-30 526,-30 526,-10 506,-10"/>
<text text-anchor="start" x="529.7251" y="-15.4" font-family="sans-serif" font-size="14.00" fill="#000000"> &#160;Module</text>
<polygon fill="#80b1d3" stroke="transparent" points="592,-10 592,-30 612,-30 612,-10 592,-10"/>
<text text-anchor="start" x="615.7812" y="-15.4" font-family="sans-serif" font-size="14.00" fill="#000000"> &#160;Bootstrap</text>
<polygon fill="#fdb462" stroke="transparent" points="689,-10 689,-30 709,-30 709,-10 689,-10"/>
<text text-anchor="start" x="712.6732" y="-15.4" font-family="sans-serif" font-size="14.00" fill="#000000"> &#160;Providers</text>
<polygon fill="#fb8072" stroke="transparent" points="785,-10 785,-30 805,-30 805,-10 785,-10"/>
<text text-anchor="start" x="808.7258" y="-15.4" font-family="sans-serif" font-size="14.00" fill="#000000"> &#160;Exports</text>
<g id="clust1" class="cluster">
<title>cluster_PipesModule</title>
<polygon fill="none" stroke="#000000" stroke-dasharray="1,5" points="8,-70 8,-268 1246,-268 1246,-70 8,-70"/>
</g>
<g id="clust2" class="cluster">
<title>cluster_PipesModule_declarations</title>
<polygon fill="none" stroke="#000000" points="16,-78 16,-130 1238,-130 1238,-78 16,-78"/>
</g>
<g id="clust11" class="cluster">
<title>cluster_PipesModule_exports</title>
<polygon fill="none" stroke="#000000" points="150,-208 150,-260 1046,-260 1046,-208 150,-208"/>
</g>
<!-- YearPipeComponent -->
<g id="node1" class="node">
<title>YearPipeComponent</title>
<polygon fill="#ffffb3" stroke="#000000" points="1229.9173,-122 1096.0827,-122 1096.0827,-86 1229.9173,-86 1229.9173,-122"/>
<text text-anchor="middle" x="1163" y="-99.8" font-family="Times,serif" font-size="14.00" fill="#000000">YearPipeComponent</text>
</g>
<!-- PipesModule -->
<g id="node8" class="node">
<title>PipesModule</title>
<polygon fill="#8dd3c7" stroke="#000000" points="691.8823,-187 688.8823,-191 667.8823,-191 664.8823,-187 602.1177,-187 602.1177,-151 691.8823,-151 691.8823,-187"/>
<text text-anchor="middle" x="647" y="-164.8" font-family="Times,serif" font-size="14.00" fill="#000000">PipesModule</text>
</g>
<!-- YearPipeComponent&#45;&gt;PipesModule -->
<g id="edge1" class="edge">
<title>YearPipeComponent&#45;&gt;PipesModule</title>
<path fill="none" stroke="#000000" d="M1163,-122.1061C1163,-141.3391 1163,-169 1163,-169 1163,-169 701.889,-169 701.889,-169"/>
<polygon fill="#000000" stroke="#000000" points="701.889,-165.5001 691.889,-169 701.8889,-172.5001 701.889,-165.5001"/>
</g>
<!-- DatePipeComponent -->
<g id="node2" class="node">
<title>DatePipeComponent</title>
<polygon fill="#ffffb3" stroke="#000000" points="1078.1471,-122 945.8529,-122 945.8529,-86 1078.1471,-86 1078.1471,-122"/>
<text text-anchor="middle" x="1012" y="-99.8" font-family="Times,serif" font-size="14.00" fill="#000000">DatePipeComponent</text>
</g>
<!-- DatePipeComponent&#45;&gt;PipesModule -->
<g id="edge2" class="edge">
<title>DatePipeComponent&#45;&gt;PipesModule</title>
<path fill="none" stroke="#000000" d="M992.0675,-122.0225C992.0675,-139.3734 992.0675,-163 992.0675,-163 992.0675,-163 702.1115,-163 702.1115,-163"/>
<polygon fill="#000000" stroke="#000000" points="702.1116,-159.5001 692.1115,-163 702.1115,-166.5001 702.1116,-159.5001"/>
</g>
<!-- TitleCasePipeComponent -->
<g id="node3" class="node">
<title>TitleCasePipeComponent</title>
<polygon fill="#ffffb3" stroke="#000000" points="927.8697,-122 768.1303,-122 768.1303,-86 927.8697,-86 927.8697,-122"/>
<text text-anchor="middle" x="848" y="-99.8" font-family="Times,serif" font-size="14.00" fill="#000000">TitleCasePipeComponent</text>
</g>
<!-- TitleCasePipeComponent&#45;&gt;PipesModule -->
<g id="edge3" class="edge">
<title>TitleCasePipeComponent&#45;&gt;PipesModule</title>
<path fill="none" stroke="#000000" d="M825.5693,-122.2396C825.5693,-137.5706 825.5693,-157 825.5693,-157 825.5693,-157 702.0606,-157 702.0606,-157"/>
<polygon fill="#000000" stroke="#000000" points="702.0606,-153.5001 692.0606,-157 702.0605,-160.5001 702.0606,-153.5001"/>
</g>
<!-- AsyncObservablePipeComponent -->
<g id="node4" class="node">
<title>AsyncObservablePipeComponent</title>
<polygon fill="#ffffb3" stroke="#000000" points="749.7324,-122 544.2676,-122 544.2676,-86 749.7324,-86 749.7324,-122"/>
<text text-anchor="middle" x="647" y="-99.8" font-family="Times,serif" font-size="14.00" fill="#000000">AsyncObservablePipeComponent</text>
</g>
<!-- AsyncObservablePipeComponent&#45;&gt;PipesModule -->
<g id="edge4" class="edge">
<title>AsyncObservablePipeComponent&#45;&gt;PipesModule</title>
<path fill="none" stroke="#000000" d="M647,-122.1061C647,-122.1061 647,-140.991 647,-140.991"/>
<polygon fill="#000000" stroke="#000000" points="643.5001,-140.9909 647,-150.991 650.5001,-140.991 643.5001,-140.9909"/>
</g>
<!-- CurrencyPipeComponent -->
<g id="node5" class="node">
<title>CurrencyPipeComponent</title>
<polygon fill="#ffffb3" stroke="#000000" points="526.3075,-122 367.6925,-122 367.6925,-86 526.3075,-86 526.3075,-122"/>
<text text-anchor="middle" x="447" y="-99.8" font-family="Times,serif" font-size="14.00" fill="#000000">CurrencyPipeComponent</text>
</g>
<!-- CurrencyPipeComponent&#45;&gt;PipesModule -->
<g id="edge5" class="edge">
<title>CurrencyPipeComponent&#45;&gt;PipesModule</title>
<path fill="none" stroke="#000000" d="M447,-122.2396C447,-137.5706 447,-157 447,-157 447,-157 592.1161,-157 592.1161,-157"/>
<polygon fill="#000000" stroke="#000000" points="592.1161,-160.5001 602.1161,-157 592.1161,-153.5001 592.1161,-160.5001"/>
</g>
<!-- JsonPipeComponent -->
<g id="node6" class="node">
<title>JsonPipeComponent</title>
<polygon fill="#ffffb3" stroke="#000000" points="349.6094,-122 218.3906,-122 218.3906,-86 349.6094,-86 349.6094,-122"/>
<text text-anchor="middle" x="284" y="-99.8" font-family="Times,serif" font-size="14.00" fill="#000000">JsonPipeComponent</text>
</g>
<!-- JsonPipeComponent&#45;&gt;PipesModule -->
<g id="edge6" class="edge">
<title>JsonPipeComponent&#45;&gt;PipesModule</title>
<path fill="none" stroke="#000000" d="M343.9693,-122.0225C343.9693,-139.3734 343.9693,-163 343.9693,-163 343.9693,-163 591.9605,-163 591.9605,-163"/>
<polygon fill="#000000" stroke="#000000" points="591.9605,-166.5001 601.9605,-163 591.9604,-159.5001 591.9605,-166.5001"/>
</g>
<!-- DiffToColorPipeComponent -->
<g id="node7" class="node">
<title>DiffToColorPipeComponent</title>
<polygon fill="#ffffb3" stroke="#000000" points="200.479,-122 23.521,-122 23.521,-86 200.479,-86 200.479,-122"/>
<text text-anchor="middle" x="112" y="-99.8" font-family="Times,serif" font-size="14.00" fill="#000000">DiffToColorPipeComponent</text>
</g>
<!-- DiffToColorPipeComponent&#45;&gt;PipesModule -->
<g id="edge7" class="edge">
<title>DiffToColorPipeComponent&#45;&gt;PipesModule</title>
<path fill="none" stroke="#000000" d="M179.293,-122.1061C179.293,-141.3391 179.293,-169 179.293,-169 179.293,-169 591.7293,-169 591.7293,-169"/>
<polygon fill="#000000" stroke="#000000" points="591.7293,-172.5001 601.7293,-169 591.7293,-165.5001 591.7293,-172.5001"/>
</g>
<!-- YearPipeComponent  -->
<g id="node9" class="node">
<title>YearPipeComponent </title>
<polygon fill="#fb8072" stroke="#000000" points="1038.4166,-252 901.5834,-252 901.5834,-216 1038.4166,-216 1038.4166,-252"/>
<text text-anchor="middle" x="970" y="-229.8" font-family="Times,serif" font-size="14.00" fill="#000000">YearPipeComponent </text>
</g>
<!-- PipesModule&#45;&gt;YearPipeComponent  -->
<g id="edge8" class="edge">
<title>PipesModule&#45;&gt;YearPipeComponent </title>
<path fill="none" stroke="#000000" stroke-dasharray="5,2" d="M692.1154,-175C768.4187,-175 914.7383,-175 914.7383,-175 914.7383,-175 914.7383,-205.9775 914.7383,-205.9775"/>
<polygon fill="#000000" stroke="#000000" points="911.2383,-205.9774 914.7383,-215.9775 918.2383,-205.9775 911.2383,-205.9774"/>
</g>
<!-- DatePipeComponent  -->
<g id="node10" class="node">
<title>DatePipeComponent </title>
<polygon fill="#fb8072" stroke="#000000" points="883.1467,-252 746.8533,-252 746.8533,-216 883.1467,-216 883.1467,-252"/>
<text text-anchor="middle" x="815" y="-229.8" font-family="Times,serif" font-size="14.00" fill="#000000">DatePipeComponent </text>
</g>
<!-- PipesModule&#45;&gt;DatePipeComponent  -->
<g id="edge9" class="edge">
<title>PipesModule&#45;&gt;DatePipeComponent </title>
<path fill="none" stroke="#000000" stroke-dasharray="5,2" d="M691.8956,-181C723.0453,-181 758.9657,-181 758.9657,-181 758.9657,-181 758.9657,-205.7604 758.9657,-205.7604"/>
<polygon fill="#000000" stroke="#000000" points="755.4657,-205.7604 758.9657,-215.7604 762.4657,-205.7604 755.4657,-205.7604"/>
</g>
<!-- TitleCasePipeComponent  -->
<g id="node11" class="node">
<title>TitleCasePipeComponent </title>
<polygon fill="#fb8072" stroke="#000000" points="728.87,-252 565.13,-252 565.13,-216 728.87,-216 728.87,-252"/>
<text text-anchor="middle" x="647" y="-229.8" font-family="Times,serif" font-size="14.00" fill="#000000">TitleCasePipeComponent </text>
</g>
<!-- PipesModule&#45;&gt;TitleCasePipeComponent  -->
<g id="edge10" class="edge">
<title>PipesModule&#45;&gt;TitleCasePipeComponent </title>
<path fill="none" stroke="#000000" stroke-dasharray="5,2" d="M647,-187.1061C647,-187.1061 647,-205.991 647,-205.991"/>
<polygon fill="#000000" stroke="#000000" points="643.5001,-205.9909 647,-215.991 650.5001,-205.991 643.5001,-205.9909"/>
</g>
<!-- AsyncObservablePipeComponent  -->
<g id="node12" class="node">
<title>AsyncObservablePipeComponent </title>
<polygon fill="#fb8072" stroke="#000000" points="547.7323,-252 338.2677,-252 338.2677,-216 547.7323,-216 547.7323,-252"/>
<text text-anchor="middle" x="443" y="-229.8" font-family="Times,serif" font-size="14.00" fill="#000000">AsyncObservablePipeComponent </text>
</g>
<!-- PipesModule&#45;&gt;AsyncObservablePipeComponent  -->
<g id="edge11" class="edge">
<title>PipesModule&#45;&gt;AsyncObservablePipeComponent </title>
<path fill="none" stroke="#000000" stroke-dasharray="5,2" d="M601.8262,-181C570.782,-181 535.1438,-181 535.1438,-181 535.1438,-181 535.1438,-205.7604 535.1438,-205.7604"/>
<polygon fill="#000000" stroke="#000000" points="531.6438,-205.7604 535.1438,-215.7604 538.6438,-205.7604 531.6438,-205.7604"/>
</g>
<!-- CurrencyPipeComponent  -->
<g id="node13" class="node">
<title>CurrencyPipeComponent </title>
<polygon fill="#fb8072" stroke="#000000" points="319.8073,-252 158.1927,-252 158.1927,-216 319.8073,-216 319.8073,-252"/>
<text text-anchor="middle" x="239" y="-229.8" font-family="Times,serif" font-size="14.00" fill="#000000">CurrencyPipeComponent </text>
</g>
<!-- PipesModule&#45;&gt;CurrencyPipeComponent  -->
<g id="edge12" class="edge">
<title>PipesModule&#45;&gt;CurrencyPipeComponent </title>
<path fill="none" stroke="#000000" stroke-dasharray="5,2" d="M601.8007,-175C501.5137,-175 269.1745,-175 269.1745,-175 269.1745,-175 269.1745,-205.9775 269.1745,-205.9775"/>
<polygon fill="#000000" stroke="#000000" points="265.6745,-205.9774 269.1745,-215.9775 272.6745,-205.9775 265.6745,-205.9774"/>
</g>
</g>
</svg>
