<?xml version="1.0" encoding="UTF-8" standalone="no"?>
<!DOCTYPE svg PUBLIC "-//W3C//DTD SVG 1.1//EN"
 "http://www.w3.org/Graphics/SVG/1.1/DTD/svg11.dtd">
<!-- Generated by graphviz version 2.40.1 (20161225.0304)
 -->
<!-- Title: dependencies Pages: 1 -->
<svg width="504pt" height="284pt"
 viewBox="0.00 0.00 504.00 284.00" xmlns="http://www.w3.org/2000/svg" xmlns:xlink="http://www.w3.org/1999/xlink">
<g id="graph0" class="graph" transform="scale(1 1) rotate(0) translate(4 280)">
<title>dependencies</title>
<polygon fill="#ffffff" stroke="transparent" points="-4,4 -4,-280 500,-280 500,4 -4,4"/>
<text text-anchor="start" x="227.0091" y="-42.4" font-family="sans-serif" font-weight="bold" font-size="14.00" fill="#000000">Legend</text>
<polygon fill="#ffffb3" stroke="transparent" points="14,-10 14,-30 34,-30 34,-10 14,-10"/>
<text text-anchor="start" x="37.629" y="-15.4" font-family="sans-serif" font-size="14.00" fill="#000000"> &#160;Declarations</text>
<polygon fill="#8dd3c7" stroke="transparent" points="127,-10 127,-30 147,-30 147,-10 127,-10"/>
<text text-anchor="start" x="150.7251" y="-15.4" font-family="sans-serif" font-size="14.00" fill="#000000"> &#160;Module</text>
<polygon fill="#80b1d3" stroke="transparent" points="213,-10 213,-30 233,-30 233,-10 213,-10"/>
<text text-anchor="start" x="236.7812" y="-15.4" font-family="sans-serif" font-size="14.00" fill="#000000"> &#160;Bootstrap</text>
<polygon fill="#fdb462" stroke="transparent" points="310,-10 310,-30 330,-30 330,-10 310,-10"/>
<text text-anchor="start" x="333.6732" y="-15.4" font-family="sans-serif" font-size="14.00" fill="#000000"> &#160;Providers</text>
<polygon fill="#fb8072" stroke="transparent" points="406,-10 406,-30 426,-30 426,-10 406,-10"/>
<text text-anchor="start" x="429.7258" y="-15.4" font-family="sans-serif" font-size="14.00" fill="#000000"> &#160;Exports</text>
<g id="clust1" class="cluster">
<title>cluster_AjuroGridModule</title>
<polygon fill="none" stroke="#000000" stroke-dasharray="1,5" points="20.5,-70 20.5,-268 475.5,-268 475.5,-70 20.5,-70"/>
</g>
<g id="clust2" class="cluster">
<title>cluster_AjuroGridModule_declarations</title>
<polygon fill="none" stroke="#000000" points="33.5,-78 33.5,-130 462.5,-130 462.5,-78 33.5,-78"/>
</g>
<g id="clust7" class="cluster">
<title>cluster_AjuroGridModule_exports</title>
<polygon fill="none" stroke="#000000" points="28.5,-208 28.5,-260 467.5,-260 467.5,-208 28.5,-208"/>
</g>
<!-- AppComponent -->
<g id="node1" class="node">
<title>AppComponent</title>
<polygon fill="#ffffb3" stroke="#000000" points="454.4399,-122 348.5601,-122 348.5601,-86 454.4399,-86 454.4399,-122"/>
<text text-anchor="middle" x="401.5" y="-99.8" font-family="Times,serif" font-size="14.00" fill="#000000">AppComponent</text>
</g>
<!-- AjuroGridModule -->
<g id="node4" class="node">
<title>AjuroGridModule</title>
<polygon fill="#8dd3c7" stroke="#000000" points="321.3655,-187 318.3655,-191 297.3655,-191 294.3655,-187 203.6345,-187 203.6345,-151 321.3655,-151 321.3655,-187"/>
<text text-anchor="middle" x="262.5" y="-164.8" font-family="Times,serif" font-size="14.00" fill="#000000">AjuroGridModule</text>
</g>
<!-- AppComponent&#45;&gt;AjuroGridModule -->
<g id="edge1" class="edge">
<title>AppComponent&#45;&gt;AjuroGridModule</title>
<path fill="none" stroke="#000000" d="M428.4223,-122.027C428.4223,-138.3976 428.4223,-160 428.4223,-160 428.4223,-160 331.4652,-160 331.4652,-160"/>
<polygon fill="#000000" stroke="#000000" points="331.4652,-156.5001 321.4652,-160 331.4651,-163.5001 331.4652,-156.5001"/>
</g>
<!-- GridFilterComponent -->
<g id="node2" class="node">
<title>GridFilterComponent</title>
<polygon fill="#ffffb3" stroke="#000000" points="331.3202,-122 328.3202,-126 307.3202,-126 304.3202,-122 193.6798,-122 193.6798,-86 331.3202,-86 331.3202,-122"/>
<text text-anchor="middle" x="262.5" y="-99.8" font-family="Times,serif" font-size="14.00" fill="#000000">GridFilterComponent</text>
</g>
<!-- GridFilterComponent&#45;&gt;AjuroGridModule -->
<g id="edge2" class="edge">
<title>GridFilterComponent&#45;&gt;AjuroGridModule</title>
<path fill="none" stroke="#000000" d="M282.1442,-122.1061C282.1442,-122.1061 282.1442,-140.991 282.1442,-140.991"/>
<polygon fill="#000000" stroke="#000000" points="278.6443,-140.9909 282.1442,-150.991 285.6443,-140.991 278.6443,-140.9909"/>
</g>
<!-- GridFilterComponent&#45;&gt;AjuroGridModule -->
<g id="edge4" class="edge">
<title>GridFilterComponent&#45;&gt;AjuroGridModule</title>
<path fill="none" stroke="#000000" d="M242.8558,-122.1061C242.8558,-122.1061 242.8558,-140.991 242.8558,-140.991"/>
<polygon fill="#000000" stroke="#000000" points="239.3559,-140.9909 242.8558,-150.991 246.3559,-140.991 239.3559,-140.9909"/>
</g>
<!-- GridAreaComponent -->
<g id="node3" class="node">
<title>GridAreaComponent</title>
<polygon fill="#ffffb3" stroke="#000000" points="175.6867,-122 172.6867,-126 151.6867,-126 148.6867,-122 41.3133,-122 41.3133,-86 175.6867,-86 175.6867,-122"/>
<text text-anchor="middle" x="108.5" y="-99.8" font-family="Times,serif" font-size="14.00" fill="#000000">GridAreaComponent</text>
</g>
<!-- GridAreaComponent&#45;&gt;AjuroGridModule -->
<g id="edge3" class="edge">
<title>GridAreaComponent&#45;&gt;AjuroGridModule</title>
<path fill="none" stroke="#000000" d="M147.756,-122.0091C147.756,-138.0494 147.756,-159 147.756,-159 147.756,-159 193.4474,-159 193.4474,-159"/>
<polygon fill="#000000" stroke="#000000" points="193.4474,-162.5001 203.4474,-159 193.4473,-155.5001 193.4474,-162.5001"/>
</g>
<!-- GridAreaComponent&#45;&gt;AjuroGridModule -->
<g id="edge5" class="edge">
<title>GridAreaComponent&#45;&gt;AjuroGridModule</title>
<path fill="none" stroke="#000000" d="M121.1687,-122.2667C121.1687,-140.5552 121.1687,-166 121.1687,-166 121.1687,-166 193.3817,-166 193.3817,-166"/>
<polygon fill="#000000" stroke="#000000" points="193.3817,-169.5001 203.3817,-166 193.3817,-162.5001 193.3817,-169.5001"/>
</g>
<!-- AppComponent  -->
<g id="node5" class="node">
<title>AppComponent </title>
<polygon fill="#fb8072" stroke="#000000" points="459.939,-252 351.061,-252 351.061,-216 459.939,-216 459.939,-252"/>
<text text-anchor="middle" x="405.5" y="-229.8" font-family="Times,serif" font-size="14.00" fill="#000000">AppComponent </text>
</g>
<!-- AjuroGridModule&#45;&gt;AppComponent  -->
<g id="edge6" class="edge">
<title>AjuroGridModule&#45;&gt;AppComponent </title>
<path fill="none" stroke="#000000" stroke-dasharray="5,2" d="M321.5195,-169C359.8147,-169 402.625,-169 402.625,-169 402.625,-169 402.625,-205.8939 402.625,-205.8939"/>
<polygon fill="#000000" stroke="#000000" points="399.1251,-205.8938 402.625,-215.8939 406.1251,-205.8939 399.1251,-205.8938"/>
</g>
<!-- AjuroGridModule&#45;&gt;AppComponent  -->
<g id="edge9" class="edge">
<title>AjuroGridModule&#45;&gt;AppComponent </title>
<path fill="none" stroke="#000000" stroke-dasharray="1,5" d="M321.6732,-178C349.5699,-178 376.8278,-178 376.8278,-178 376.8278,-178 376.8278,-205.973 376.8278,-205.973"/>
<polygon fill="#000000" stroke="#000000" points="373.3278,-205.973 376.8278,-215.973 380.3278,-205.973 373.3278,-205.973"/>
</g>
<!-- GridFilterComponent  -->
<g id="node6" class="node">
<title>GridFilterComponent </title>
<polygon fill="#fb8072" stroke="#000000" points="332.8199,-252 192.1801,-252 192.1801,-216 332.8199,-216 332.8199,-252"/>
<text text-anchor="middle" x="262.5" y="-229.8" font-family="Times,serif" font-size="14.00" fill="#000000">GridFilterComponent </text>
</g>
<!-- AjuroGridModule&#45;&gt;GridFilterComponent  -->
<g id="edge7" class="edge">
<title>AjuroGridModule&#45;&gt;GridFilterComponent </title>
<path fill="none" stroke="#000000" stroke-dasharray="5,2" d="M242.8558,-187.1061C242.8558,-187.1061 242.8558,-205.991 242.8558,-205.991"/>
<polygon fill="#000000" stroke="#000000" points="239.3559,-205.9909 242.8558,-215.991 246.3559,-205.991 239.3559,-205.9909"/>
</g>
<!-- AjuroGridModule&#45;&gt;GridFilterComponent  -->
<g id="edge10" class="edge">
<title>AjuroGridModule&#45;&gt;GridFilterComponent </title>
<path fill="none" stroke="#000000" stroke-dasharray="1,5" d="M282.1442,-187.1061C282.1442,-187.1061 282.1442,-205.991 282.1442,-205.991"/>
<polygon fill="#000000" stroke="#000000" points="278.6443,-205.9909 282.1442,-215.991 285.6443,-205.991 278.6443,-205.9909"/>
</g>
<!-- GridAreaComponent  -->
<g id="node7" class="node">
<title>GridAreaComponent </title>
<polygon fill="#fb8072" stroke="#000000" points="174.187,-252 36.813,-252 36.813,-216 174.187,-216 174.187,-252"/>
<text text-anchor="middle" x="105.5" y="-229.8" font-family="Times,serif" font-size="14.00" fill="#000000">GridAreaComponent </text>
</g>
<!-- AjuroGridModule&#45;&gt;GridAreaComponent  -->
<g id="edge8" class="edge">
<title>AjuroGridModule&#45;&gt;GridAreaComponent </title>
<path fill="none" stroke="#000000" stroke-dasharray="5,2" d="M203.614,-173C146.3658,-173 67.994,-173 67.994,-173 67.994,-173 67.994,-205.698 67.994,-205.698"/>
<polygon fill="#000000" stroke="#000000" points="64.4941,-205.698 67.994,-215.698 71.4941,-205.698 64.4941,-205.698"/>
</g>
<!-- AjuroGridModule&#45;&gt;GridAreaComponent  -->
<g id="edge11" class="edge">
<title>AjuroGridModule&#45;&gt;GridAreaComponent </title>
<path fill="none" stroke="#000000" stroke-dasharray="1,5" d="M203.2982,-180C154.9534,-180 94.5813,-180 94.5813,-180 94.5813,-180 94.5813,-205.7181 94.5813,-205.7181"/>
<polygon fill="#000000" stroke="#000000" points="91.0814,-205.718 94.5813,-215.7181 98.0814,-205.7181 91.0814,-205.718"/>
</g>
</g>
</svg>
