<?xml version="1.0" encoding="UTF-8" standalone="no"?>
<!DOCTYPE svg PUBLIC "-//W3C//DTD SVG 1.1//EN"
 "http://www.w3.org/Graphics/SVG/1.1/DTD/svg11.dtd">
<!-- Generated by graphviz version 2.40.1 (20161225.0304)
 -->
<!-- Title: dependencies Pages: 1 -->
<svg width="849pt" height="284pt"
 viewBox="0.00 0.00 849.00 284.00" xmlns="http://www.w3.org/2000/svg" xmlns:xlink="http://www.w3.org/1999/xlink">
<g id="graph0" class="graph" transform="scale(1 1) rotate(0) translate(4 280)">
<title>dependencies</title>
<polygon fill="#ffffff" stroke="transparent" points="-4,4 -4,-280 845,-280 845,4 -4,4"/>
<text text-anchor="start" x="399.5091" y="-42.4" font-family="sans-serif" font-weight="bold" font-size="14.00" fill="#000000">Legend</text>
<polygon fill="#ffffb3" stroke="transparent" points="186.5,-10 186.5,-30 206.5,-30 206.5,-10 186.5,-10"/>
<text text-anchor="start" x="210.129" y="-15.4" font-family="sans-serif" font-size="14.00" fill="#000000"> &#160;Declarations</text>
<polygon fill="#8dd3c7" stroke="transparent" points="299.5,-10 299.5,-30 319.5,-30 319.5,-10 299.5,-10"/>
<text text-anchor="start" x="323.2251" y="-15.4" font-family="sans-serif" font-size="14.00" fill="#000000"> &#160;Module</text>
<polygon fill="#80b1d3" stroke="transparent" points="385.5,-10 385.5,-30 405.5,-30 405.5,-10 385.5,-10"/>
<text text-anchor="start" x="409.2812" y="-15.4" font-family="sans-serif" font-size="14.00" fill="#000000"> &#160;Bootstrap</text>
<polygon fill="#fdb462" stroke="transparent" points="482.5,-10 482.5,-30 502.5,-30 502.5,-10 482.5,-10"/>
<text text-anchor="start" x="506.1732" y="-15.4" font-family="sans-serif" font-size="14.00" fill="#000000"> &#160;Providers</text>
<polygon fill="#fb8072" stroke="transparent" points="578.5,-10 578.5,-30 598.5,-30 598.5,-10 578.5,-10"/>
<text text-anchor="start" x="602.2258" y="-15.4" font-family="sans-serif" font-size="14.00" fill="#000000"> &#160;Exports</text>
<g id="clust1" class="cluster">
<title>cluster_AjuroCardsModule</title>
<polygon fill="none" stroke="#000000" stroke-dasharray="1,5" points="8,-70 8,-268 833,-268 833,-70 8,-70"/>
</g>
<g id="clust2" class="cluster">
<title>cluster_AjuroCardsModule_declarations</title>
<polygon fill="none" stroke="#000000" points="25,-78 25,-130 817,-130 817,-78 25,-78"/>
</g>
<g id="clust9" class="cluster">
<title>cluster_AjuroCardsModule_exports</title>
<polygon fill="none" stroke="#000000" points="16,-208 16,-260 825,-260 825,-208 16,-208"/>
</g>
<!-- AppComponent -->
<g id="node1" class="node">
<title>AppComponent</title>
<polygon fill="#ffffb3" stroke="#000000" points="808.9399,-122 703.0601,-122 703.0601,-86 808.9399,-86 808.9399,-122"/>
<text text-anchor="middle" x="756" y="-99.8" font-family="Times,serif" font-size="14.00" fill="#000000">AppComponent</text>
</g>
<!-- AjuroCardsModule -->
<g id="node6" class="node">
<title>AjuroCardsModule</title>
<polygon fill="#8dd3c7" stroke="#000000" points="499.3641,-187 496.3641,-191 475.3641,-191 472.3641,-187 374.6359,-187 374.6359,-151 499.3641,-151 499.3641,-187"/>
<text text-anchor="middle" x="437" y="-164.8" font-family="Times,serif" font-size="14.00" fill="#000000">AjuroCardsModule</text>
</g>
<!-- AppComponent&#45;&gt;AjuroCardsModule -->
<g id="edge1" class="edge">
<title>AppComponent&#45;&gt;AjuroCardsModule</title>
<path fill="none" stroke="#000000" d="M783.6723,-122.302C783.6723,-140.2699 783.6723,-165 783.6723,-165 783.6723,-165 509.3784,-165 509.3784,-165"/>
<polygon fill="#000000" stroke="#000000" points="509.3785,-161.5001 499.3784,-165 509.3784,-168.5001 509.3785,-161.5001"/>
</g>
<!-- CardsSourcesComponent -->
<g id="node2" class="node">
<title>CardsSourcesComponent</title>
<polygon fill="#ffffb3" stroke="#000000" points="685.3061,-122 682.3061,-126 661.3061,-126 658.3061,-122 526.6939,-122 526.6939,-86 685.3061,-86 685.3061,-122"/>
<text text-anchor="middle" x="606" y="-99.8" font-family="Times,serif" font-size="14.00" fill="#000000">CardsSourcesComponent</text>
</g>
<!-- CardsSourcesComponent&#45;&gt;AjuroCardsModule -->
<g id="edge2" class="edge">
<title>CardsSourcesComponent&#45;&gt;AjuroCardsModule</title>
<path fill="none" stroke="#000000" d="M622.7306,-122.1871C622.7306,-137.1824 622.7306,-156 622.7306,-156 622.7306,-156 509.621,-156 509.621,-156"/>
<polygon fill="#000000" stroke="#000000" points="509.621,-152.5001 499.621,-156 509.6209,-159.5001 509.621,-152.5001"/>
</g>
<!-- CardsSourcesComponent&#45;&gt;AjuroCardsModule -->
<g id="edge6" class="edge">
<title>CardsSourcesComponent&#45;&gt;AjuroCardsModule</title>
<path fill="none" stroke="#000000" d="M653.9417,-122.027C653.9417,-138.3976 653.9417,-160 653.9417,-160 653.9417,-160 509.4575,-160 509.4575,-160"/>
<polygon fill="#000000" stroke="#000000" points="509.4575,-156.5001 499.4575,-160 509.4575,-163.5001 509.4575,-156.5001"/>
</g>
<!-- CardsFilterComponent -->
<g id="node3" class="node">
<title>CardsFilterComponent</title>
<polygon fill="#ffffb3" stroke="#000000" points="509.3188,-122 506.3188,-126 485.3188,-126 482.3188,-122 364.6812,-122 364.6812,-86 509.3188,-86 509.3188,-122"/>
<text text-anchor="middle" x="437" y="-99.8" font-family="Times,serif" font-size="14.00" fill="#000000">CardsFilterComponent</text>
</g>
<!-- CardsFilterComponent&#45;&gt;AjuroCardsModule -->
<g id="edge3" class="edge">
<title>CardsFilterComponent&#45;&gt;AjuroCardsModule</title>
<path fill="none" stroke="#000000" d="M457.8107,-122.1061C457.8107,-122.1061 457.8107,-140.991 457.8107,-140.991"/>
<polygon fill="#000000" stroke="#000000" points="454.3108,-140.9909 457.8107,-150.991 461.3108,-140.991 454.3108,-140.9909"/>
</g>
<!-- CardsFilterComponent&#45;&gt;AjuroCardsModule -->
<g id="edge7" class="edge">
<title>CardsFilterComponent&#45;&gt;AjuroCardsModule</title>
<path fill="none" stroke="#000000" d="M416.1893,-122.1061C416.1893,-122.1061 416.1893,-140.991 416.1893,-140.991"/>
<polygon fill="#000000" stroke="#000000" points="412.6894,-140.9909 416.1893,-150.991 419.6894,-140.991 412.6894,-140.9909"/>
</g>
<!-- CardsListComponent -->
<g id="node4" class="node">
<title>CardsListComponent</title>
<polygon fill="#ffffb3" stroke="#000000" points="346.7674,-122 343.7674,-126 322.7674,-126 319.7674,-122 211.2326,-122 211.2326,-86 346.7674,-86 346.7674,-122"/>
<text text-anchor="middle" x="279" y="-99.8" font-family="Times,serif" font-size="14.00" fill="#000000">CardsListComponent</text>
</g>
<!-- CardsListComponent&#45;&gt;AjuroCardsModule -->
<g id="edge4" class="edge">
<title>CardsListComponent&#45;&gt;AjuroCardsModule</title>
<path fill="none" stroke="#000000" d="M317.9302,-122.1243C317.9302,-136.7832 317.9302,-155 317.9302,-155 317.9302,-155 364.3268,-155 364.3268,-155"/>
<polygon fill="#000000" stroke="#000000" points="364.3269,-158.5001 374.3268,-155 364.3268,-151.5001 364.3269,-158.5001"/>
</g>
<!-- CardsListComponent&#45;&gt;AjuroCardsModule -->
<g id="edge8" class="edge">
<title>CardsListComponent&#45;&gt;AjuroCardsModule</title>
<path fill="none" stroke="#000000" d="M291.2267,-122.0091C291.2267,-138.0494 291.2267,-159 291.2267,-159 291.2267,-159 364.333,-159 364.333,-159"/>
<polygon fill="#000000" stroke="#000000" points="364.3331,-162.5001 374.333,-159 364.333,-155.5001 364.3331,-162.5001"/>
</g>
<!-- CardsPreviewComponent -->
<g id="node5" class="node">
<title>CardsPreviewComponent</title>
<polygon fill="#ffffb3" stroke="#000000" points="192.8585,-122 189.8585,-126 168.8585,-126 165.8585,-122 33.1415,-122 33.1415,-86 192.8585,-86 192.8585,-122"/>
<text text-anchor="middle" x="113" y="-99.8" font-family="Times,serif" font-size="14.00" fill="#000000">CardsPreviewComponent</text>
</g>
<!-- CardsPreviewComponent&#45;&gt;AjuroCardsModule -->
<g id="edge5" class="edge">
<title>CardsPreviewComponent&#45;&gt;AjuroCardsModule</title>
<path fill="none" stroke="#000000" d="M156.7575,-122.0225C156.7575,-139.3734 156.7575,-163 156.7575,-163 156.7575,-163 364.4569,-163 364.4569,-163"/>
<polygon fill="#000000" stroke="#000000" points="364.457,-166.5001 374.4569,-163 364.4569,-159.5001 364.457,-166.5001"/>
</g>
<!-- CardsPreviewComponent&#45;&gt;AjuroCardsModule -->
<g id="edge9" class="edge">
<title>CardsPreviewComponent&#45;&gt;AjuroCardsModule</title>
<path fill="none" stroke="#000000" d="M125.8358,-122.2222C125.8358,-140.8285 125.8358,-167 125.8358,-167 125.8358,-167 364.4056,-167 364.4056,-167"/>
<polygon fill="#000000" stroke="#000000" points="364.4056,-170.5001 374.4056,-167 364.4056,-163.5001 364.4056,-170.5001"/>
</g>
<!-- AppComponent  -->
<g id="node7" class="node">
<title>AppComponent </title>
<polygon fill="#fb8072" stroke="#000000" points="817.439,-252 708.561,-252 708.561,-216 817.439,-216 817.439,-252"/>
<text text-anchor="middle" x="763" y="-229.8" font-family="Times,serif" font-size="14.00" fill="#000000">AppComponent </text>
</g>
<!-- AjuroCardsModule&#45;&gt;AppComponent  -->
<g id="edge10" class="edge">
<title>AjuroCardsModule&#45;&gt;AppComponent </title>
<path fill="none" stroke="#000000" stroke-dasharray="5,2" d="M499.5341,-174C586.5467,-174 733.5777,-174 733.5777,-174 733.5777,-174 733.5777,-205.998 733.5777,-205.998"/>
<polygon fill="#000000" stroke="#000000" points="730.0778,-205.998 733.5777,-215.998 737.0778,-205.9981 730.0778,-205.998"/>
</g>
<!-- AjuroCardsModule&#45;&gt;AppComponent  -->
<g id="edge15" class="edge">
<title>AjuroCardsModule&#45;&gt;AppComponent </title>
<path fill="none" stroke="#000000" stroke-dasharray="1,5" d="M499.3939,-169C592.9242,-169 758.625,-169 758.625,-169 758.625,-169 758.625,-205.8939 758.625,-205.8939"/>
<polygon fill="#000000" stroke="#000000" points="755.1251,-205.8938 758.625,-215.8939 762.1251,-205.8939 755.1251,-205.8938"/>
</g>
<!-- CardsSourcesComponent  -->
<g id="node8" class="node">
<title>CardsSourcesComponent </title>
<polygon fill="#fb8072" stroke="#000000" points="690.8059,-252 529.1941,-252 529.1941,-216 690.8059,-216 690.8059,-252"/>
<text text-anchor="middle" x="610" y="-229.8" font-family="Times,serif" font-size="14.00" fill="#000000">CardsSourcesComponent </text>
</g>
<!-- AjuroCardsModule&#45;&gt;CardsSourcesComponent  -->
<g id="edge11" class="edge">
<title>AjuroCardsModule&#45;&gt;CardsSourcesComponent </title>
<path fill="none" stroke="#000000" stroke-dasharray="5,2" d="M499.4036,-178C542.2884,-178 591.5194,-178 591.5194,-178 591.5194,-178 591.5194,-205.973 591.5194,-205.973"/>
<polygon fill="#000000" stroke="#000000" points="588.0195,-205.973 591.5194,-215.973 595.0195,-205.973 588.0195,-205.973"/>
</g>
<!-- AjuroCardsModule&#45;&gt;CardsSourcesComponent  -->
<g id="edge16" class="edge">
<title>AjuroCardsModule&#45;&gt;CardsSourcesComponent </title>
<path fill="none" stroke="#000000" stroke-dasharray="1,5" d="M499.3766,-183C529.961,-183 560.3083,-183 560.3083,-183 560.3083,-183 560.3083,-205.8757 560.3083,-205.8757"/>
<polygon fill="#000000" stroke="#000000" points="556.8084,-205.8757 560.3083,-215.8757 563.8084,-205.8757 556.8084,-205.8757"/>
</g>
<!-- CardsFilterComponent  -->
<g id="node9" class="node">
<title>CardsFilterComponent </title>
<polygon fill="#fb8072" stroke="#000000" points="510.8185,-252 363.1815,-252 363.1815,-216 510.8185,-216 510.8185,-252"/>
<text text-anchor="middle" x="437" y="-229.8" font-family="Times,serif" font-size="14.00" fill="#000000">CardsFilterComponent </text>
</g>
<!-- AjuroCardsModule&#45;&gt;CardsFilterComponent  -->
<g id="edge12" class="edge">
<title>AjuroCardsModule&#45;&gt;CardsFilterComponent </title>
<path fill="none" stroke="#000000" stroke-dasharray="5,2" d="M457.8107,-187.1061C457.8107,-187.1061 457.8107,-205.991 457.8107,-205.991"/>
<polygon fill="#000000" stroke="#000000" points="454.3108,-205.9909 457.8107,-215.991 461.3108,-205.991 454.3108,-205.9909"/>
</g>
<!-- AjuroCardsModule&#45;&gt;CardsFilterComponent  -->
<g id="edge17" class="edge">
<title>AjuroCardsModule&#45;&gt;CardsFilterComponent </title>
<path fill="none" stroke="#000000" stroke-dasharray="1,5" d="M416.1893,-187.1061C416.1893,-187.1061 416.1893,-205.991 416.1893,-205.991"/>
<polygon fill="#000000" stroke="#000000" points="412.6894,-205.9909 416.1893,-215.991 419.6894,-205.991 412.6894,-205.9909"/>
</g>
<!-- CardsListComponent  -->
<g id="node10" class="node">
<title>CardsListComponent </title>
<polygon fill="#fb8072" stroke="#000000" points="344.7675,-252 205.2325,-252 205.2325,-216 344.7675,-216 344.7675,-252"/>
<text text-anchor="middle" x="275" y="-229.8" font-family="Times,serif" font-size="14.00" fill="#000000">CardsListComponent </text>
</g>
<!-- AjuroCardsModule&#45;&gt;CardsListComponent  -->
<g id="edge13" class="edge">
<title>AjuroCardsModule&#45;&gt;CardsListComponent </title>
<path fill="none" stroke="#000000" stroke-dasharray="5,2" d="M374.5246,-179C316.1116,-179 237.8198,-179 237.8198,-179 237.8198,-179 237.8198,-205.9909 237.8198,-205.9909"/>
<polygon fill="#000000" stroke="#000000" points="234.3199,-205.9909 237.8198,-215.9909 241.3199,-205.991 234.3199,-205.9909"/>
</g>
<!-- AjuroCardsModule&#45;&gt;CardsListComponent  -->
<g id="edge18" class="edge">
<title>AjuroCardsModule&#45;&gt;CardsListComponent </title>
<path fill="none" stroke="#000000" stroke-dasharray="1,5" d="M374.244,-183C324.9287,-183 264.5233,-183 264.5233,-183 264.5233,-183 264.5233,-205.8757 264.5233,-205.8757"/>
<polygon fill="#000000" stroke="#000000" points="261.0234,-205.8757 264.5233,-215.8757 268.0234,-205.8757 261.0234,-205.8757"/>
</g>
<!-- CardsPreviewComponent  -->
<g id="node11" class="node">
<title>CardsPreviewComponent </title>
<polygon fill="#fb8072" stroke="#000000" points="187.8588,-252 24.1412,-252 24.1412,-216 187.8588,-216 187.8588,-252"/>
<text text-anchor="middle" x="106" y="-229.8" font-family="Times,serif" font-size="14.00" fill="#000000">CardsPreviewComponent </text>
</g>
<!-- AjuroCardsModule&#45;&gt;CardsPreviewComponent  -->
<g id="edge14" class="edge">
<title>AjuroCardsModule&#45;&gt;CardsPreviewComponent </title>
<path fill="none" stroke="#000000" stroke-dasharray="5,2" d="M374.5669,-171C268.3808,-171 63.9925,-171 63.9925,-171 63.9925,-171 63.9925,-205.7778 63.9925,-205.7778"/>
<polygon fill="#000000" stroke="#000000" points="60.4924,-205.7778 63.9925,-215.7778 67.4924,-205.7778 60.4924,-205.7778"/>
</g>
<!-- AjuroCardsModule&#45;&gt;CardsPreviewComponent  -->
<g id="edge19" class="edge">
<title>AjuroCardsModule&#45;&gt;CardsPreviewComponent </title>
<path fill="none" stroke="#000000" stroke-dasharray="1,5" d="M374.2562,-175C275.4989,-175 94.9142,-175 94.9142,-175 94.9142,-175 94.9142,-205.9775 94.9142,-205.9775"/>
<polygon fill="#000000" stroke="#000000" points="91.4143,-205.9774 94.9142,-215.9775 98.4143,-205.9775 91.4143,-205.9774"/>
</g>
</g>
</svg>
