<?xml version="1.0" encoding="UTF-8" standalone="no"?>
<!DOCTYPE svg PUBLIC "-//W3C//DTD SVG 1.1//EN"
 "http://www.w3.org/Graphics/SVG/1.1/DTD/svg11.dtd">
<!-- Generated by graphviz version 2.40.1 (20161225.0304)
 -->
<!-- Title: dependencies Pages: 1 -->
<svg width="504pt" height="284pt"
 viewBox="0.00 0.00 504.00 284.00" xmlns="http://www.w3.org/2000/svg" xmlns:xlink="http://www.w3.org/1999/xlink">
<g id="graph0" class="graph" transform="scale(1 1) rotate(0) translate(4 280)">
<title>dependencies</title>
<polygon fill="#ffffff" stroke="transparent" points="-4,4 -4,-280 500,-280 500,4 -4,4"/>
<text text-anchor="start" x="227.0091" y="-42.4" font-family="sans-serif" font-weight="bold" font-size="14.00" fill="#000000">Legend</text>
<polygon fill="#ffffb3" stroke="transparent" points="14,-10 14,-30 34,-30 34,-10 14,-10"/>
<text text-anchor="start" x="37.629" y="-15.4" font-family="sans-serif" font-size="14.00" fill="#000000"> &#160;Declarations</text>
<polygon fill="#8dd3c7" stroke="transparent" points="127,-10 127,-30 147,-30 147,-10 127,-10"/>
<text text-anchor="start" x="150.7251" y="-15.4" font-family="sans-serif" font-size="14.00" fill="#000000"> &#160;Module</text>
<polygon fill="#80b1d3" stroke="transparent" points="213,-10 213,-30 233,-30 233,-10 213,-10"/>
<text text-anchor="start" x="236.7812" y="-15.4" font-family="sans-serif" font-size="14.00" fill="#000000"> &#160;Bootstrap</text>
<polygon fill="#fdb462" stroke="transparent" points="310,-10 310,-30 330,-30 330,-10 310,-10"/>
<text text-anchor="start" x="333.6732" y="-15.4" font-family="sans-serif" font-size="14.00" fill="#000000"> &#160;Providers</text>
<polygon fill="#fb8072" stroke="transparent" points="406,-10 406,-30 426,-30 426,-10 406,-10"/>
<text text-anchor="start" x="429.7258" y="-15.4" font-family="sans-serif" font-size="14.00" fill="#000000"> &#160;Exports</text>
<g id="clust1" class="cluster">
<title>cluster_DataModule</title>
<polygon fill="none" stroke="#000000" stroke-dasharray="1,5" points="87,-70 87,-268 409,-268 409,-70 87,-70"/>
</g>
<g id="clust2" class="cluster">
<title>cluster_DataModule_declarations</title>
<polygon fill="none" stroke="#000000" points="99,-78 99,-130 399,-130 399,-78 99,-78"/>
</g>
<g id="clust6" class="cluster">
<title>cluster_DataModule_exports</title>
<polygon fill="none" stroke="#000000" points="95,-208 95,-260 401,-260 401,-208 95,-208"/>
</g>
<!-- AppComponent -->
<g id="node1" class="node">
<title>AppComponent</title>
<polygon fill="#ffffb3" stroke="#000000" points="390.9399,-122 285.0601,-122 285.0601,-86 390.9399,-86 390.9399,-122"/>
<text text-anchor="middle" x="338" y="-99.8" font-family="Times,serif" font-size="14.00" fill="#000000">AppComponent</text>
</g>
<!-- DataModule -->
<g id="node3" class="node">
<title>DataModule</title>
<polygon fill="#8dd3c7" stroke="#000000" points="229.9762,-187 226.9762,-191 205.9762,-191 202.9762,-187 144.0238,-187 144.0238,-151 229.9762,-151 229.9762,-187"/>
<text text-anchor="middle" x="187" y="-164.8" font-family="Times,serif" font-size="14.00" fill="#000000">DataModule</text>
</g>
<!-- AppComponent&#45;&gt;DataModule -->
<g id="edge1" class="edge">
<title>AppComponent&#45;&gt;DataModule</title>
<path fill="none" stroke="#000000" d="M364.3597,-122.027C364.3597,-138.3976 364.3597,-160 364.3597,-160 364.3597,-160 240.3871,-160 240.3871,-160"/>
<polygon fill="#000000" stroke="#000000" points="240.3871,-156.5001 230.3871,-160 240.387,-163.5001 240.3871,-156.5001"/>
</g>
<!-- DataPresenterComponent -->
<g id="node2" class="node">
<title>DataPresenterComponent</title>
<polygon fill="#ffffb3" stroke="#000000" points="266.8417,-122 263.8417,-126 242.8417,-126 239.8417,-122 107.1583,-122 107.1583,-86 266.8417,-86 266.8417,-122"/>
<text text-anchor="middle" x="187" y="-99.8" font-family="Times,serif" font-size="14.00" fill="#000000">DataPresenterComponent</text>
</g>
<!-- DataPresenterComponent&#45;&gt;DataModule -->
<g id="edge2" class="edge">
<title>DataPresenterComponent&#45;&gt;DataModule</title>
<path fill="none" stroke="#000000" d="M201.3294,-122.1061C201.3294,-122.1061 201.3294,-140.991 201.3294,-140.991"/>
<polygon fill="#000000" stroke="#000000" points="197.8295,-140.9909 201.3294,-150.991 204.8295,-140.991 197.8295,-140.9909"/>
</g>
<!-- DataPresenterComponent&#45;&gt;DataModule -->
<g id="edge3" class="edge">
<title>DataPresenterComponent&#45;&gt;DataModule</title>
<path fill="none" stroke="#000000" d="M172.6706,-122.1061C172.6706,-122.1061 172.6706,-140.991 172.6706,-140.991"/>
<polygon fill="#000000" stroke="#000000" points="169.1707,-140.9909 172.6706,-150.991 176.1707,-140.991 169.1707,-140.9909"/>
</g>
<!-- AppComponent  -->
<g id="node4" class="node">
<title>AppComponent </title>
<polygon fill="#fb8072" stroke="#000000" points="393.439,-252 284.561,-252 284.561,-216 393.439,-216 393.439,-252"/>
<text text-anchor="middle" x="339" y="-229.8" font-family="Times,serif" font-size="14.00" fill="#000000">AppComponent </text>
</g>
<!-- DataModule&#45;&gt;AppComponent  -->
<g id="edge4" class="edge">
<title>DataModule&#45;&gt;AppComponent </title>
<path fill="none" stroke="#000000" stroke-dasharray="5,2" d="M230.2705,-169C274.8908,-169 338,-169 338,-169 338,-169 338,-205.8939 338,-205.8939"/>
<polygon fill="#000000" stroke="#000000" points="334.5001,-205.8938 338,-215.8939 341.5001,-205.8939 334.5001,-205.8938"/>
</g>
<!-- DataModule&#45;&gt;AppComponent  -->
<g id="edge6" class="edge">
<title>DataModule&#45;&gt;AppComponent </title>
<path fill="none" stroke="#000000" stroke-dasharray="1,5" d="M230.2433,-178C266.2424,-178 311.6403,-178 311.6403,-178 311.6403,-178 311.6403,-205.973 311.6403,-205.973"/>
<polygon fill="#000000" stroke="#000000" points="308.1403,-205.973 311.6403,-215.973 315.1403,-205.973 308.1403,-205.973"/>
</g>
<!-- DataPresenterComponent  -->
<g id="node5" class="node">
<title>DataPresenterComponent </title>
<polygon fill="#fb8072" stroke="#000000" points="266.842,-252 103.158,-252 103.158,-216 266.842,-216 266.842,-252"/>
<text text-anchor="middle" x="185" y="-229.8" font-family="Times,serif" font-size="14.00" fill="#000000">DataPresenterComponent </text>
</g>
<!-- DataModule&#45;&gt;DataPresenterComponent  -->
<g id="edge5" class="edge">
<title>DataModule&#45;&gt;DataPresenterComponent </title>
<path fill="none" stroke="#000000" stroke-dasharray="5,2" d="M201.3294,-187.1061C201.3294,-187.1061 201.3294,-205.991 201.3294,-205.991"/>
<polygon fill="#000000" stroke="#000000" points="197.8295,-205.9909 201.3294,-215.991 204.8295,-205.991 197.8295,-205.9909"/>
</g>
<!-- DataModule&#45;&gt;DataPresenterComponent  -->
<g id="edge7" class="edge">
<title>DataModule&#45;&gt;DataPresenterComponent </title>
<path fill="none" stroke="#000000" stroke-dasharray="1,5" d="M172.6706,-187.1061C172.6706,-187.1061 172.6706,-205.991 172.6706,-205.991"/>
<polygon fill="#000000" stroke="#000000" points="169.1707,-205.9909 172.6706,-215.991 176.1707,-205.991 169.1707,-205.9909"/>
</g>
</g>
</svg>
