<?xml version="1.0" encoding="UTF-8" standalone="no"?>
<!DOCTYPE svg PUBLIC "-//W3C//DTD SVG 1.1//EN"
 "http://www.w3.org/Graphics/SVG/1.1/DTD/svg11.dtd">
<!-- Generated by graphviz version 2.40.1 (20161225.0304)
 -->
<!-- Title: dependencies Pages: 1 -->
<svg width="3373pt" height="284pt"
 viewBox="0.00 0.00 3373.00 284.00" xmlns="http://www.w3.org/2000/svg" xmlns:xlink="http://www.w3.org/1999/xlink">
<g id="graph0" class="graph" transform="scale(1 1) rotate(0) translate(4 280)">
<title>dependencies</title>
<polygon fill="#ffffff" stroke="transparent" points="-4,4 -4,-280 3369,-280 3369,4 -4,4"/>
<text text-anchor="start" x="1661.5091" y="-42.4" font-family="sans-serif" font-weight="bold" font-size="14.00" fill="#000000">Legend</text>
<polygon fill="#ffffb3" stroke="transparent" points="1448.5,-10 1448.5,-30 1468.5,-30 1468.5,-10 1448.5,-10"/>
<text text-anchor="start" x="1472.129" y="-15.4" font-family="sans-serif" font-size="14.00" fill="#000000"> &#160;Declarations</text>
<polygon fill="#8dd3c7" stroke="transparent" points="1561.5,-10 1561.5,-30 1581.5,-30 1581.5,-10 1561.5,-10"/>
<text text-anchor="start" x="1585.2251" y="-15.4" font-family="sans-serif" font-size="14.00" fill="#000000"> &#160;Module</text>
<polygon fill="#80b1d3" stroke="transparent" points="1647.5,-10 1647.5,-30 1667.5,-30 1667.5,-10 1647.5,-10"/>
<text text-anchor="start" x="1671.2812" y="-15.4" font-family="sans-serif" font-size="14.00" fill="#000000"> &#160;Bootstrap</text>
<polygon fill="#fdb462" stroke="transparent" points="1744.5,-10 1744.5,-30 1764.5,-30 1764.5,-10 1744.5,-10"/>
<text text-anchor="start" x="1768.1732" y="-15.4" font-family="sans-serif" font-size="14.00" fill="#000000"> &#160;Providers</text>
<polygon fill="#fb8072" stroke="transparent" points="1840.5,-10 1840.5,-30 1860.5,-30 1860.5,-10 1840.5,-10"/>
<text text-anchor="start" x="1864.2258" y="-15.4" font-family="sans-serif" font-size="14.00" fill="#000000"> &#160;Exports</text>
<g id="clust1" class="cluster">
<title>cluster_AjuroCardsModule</title>
<polygon fill="none" stroke="#000000" stroke-dasharray="1,5" points="950,-70 950,-268 1775,-268 1775,-70 950,-70"/>
</g>
<g id="clust2" class="cluster">
<title>cluster_AjuroCardsModule_declarations</title>
<polygon fill="none" stroke="#000000" points="958,-78 958,-130 1750,-130 1750,-78 958,-78"/>
</g>
<g id="clust9" class="cluster">
<title>cluster_AjuroCardsModule_exports</title>
<polygon fill="none" stroke="#000000" points="958,-208 958,-260 1767,-260 1767,-208 958,-208"/>
</g>
<g id="clust12" class="cluster">
<title>cluster_AjuroGridModule</title>
<polygon fill="none" stroke="#000000" stroke-dasharray="1,5" points="1783,-70 1783,-268 2111,-268 2111,-70 1783,-70"/>
</g>
<g id="clust13" class="cluster">
<title>cluster_AjuroGridModule_declarations</title>
<polygon fill="none" stroke="#000000" points="1791,-78 1791,-130 2097,-130 2097,-78 1791,-78"/>
</g>
<g id="clust18" class="cluster">
<title>cluster_AjuroGridModule_exports</title>
<polygon fill="none" stroke="#000000" points="1791,-208 1791,-260 2103,-260 2103,-208 1791,-208"/>
</g>
<g id="clust21" class="cluster">
<title>cluster_AppModule</title>
<polygon fill="none" stroke="#000000" stroke-dasharray="1,5" points="212,-70 212,-195 942,-195 942,-70 212,-70"/>
</g>
<g id="clust22" class="cluster">
<title>cluster_AppModule_declarations</title>
<polygon fill="none" stroke="#000000" points="220,-78 220,-130 794,-130 794,-78 220,-78"/>
</g>
<g id="clust27" class="cluster">
<title>cluster_AppModule_providers</title>
<polygon fill="none" stroke="#000000" points="802,-78 802,-130 934,-130 934,-78 802,-78"/>
</g>
<g id="clust37" class="cluster">
<title>cluster_DataModule</title>
<polygon fill="none" stroke="#000000" stroke-dasharray="1,5" points="8,-143 8,-268 204,-268 204,-143 8,-143"/>
</g>
<g id="clust42" class="cluster">
<title>cluster_DataModule_exports</title>
<polygon fill="none" stroke="#000000" points="16,-208 16,-260 196,-260 196,-208 16,-208"/>
</g>
<g id="clust45" class="cluster">
<title>cluster_PipesModule</title>
<polygon fill="none" stroke="#000000" stroke-dasharray="1,5" points="2119,-70 2119,-268 3357,-268 3357,-70 2119,-70"/>
</g>
<g id="clust46" class="cluster">
<title>cluster_PipesModule_declarations</title>
<polygon fill="none" stroke="#000000" points="2127,-78 2127,-130 3349,-130 3349,-78 2127,-78"/>
</g>
<g id="clust55" class="cluster">
<title>cluster_PipesModule_exports</title>
<polygon fill="none" stroke="#000000" points="2318,-208 2318,-260 3213,-260 3213,-208 2318,-208"/>
</g>
<!-- AppComponent -->
<g id="node1" class="node">
<title>AppComponent</title>
<polygon fill="#ffffb3" stroke="#000000" points="1071.9399,-122 966.0601,-122 966.0601,-86 1071.9399,-86 1071.9399,-122"/>
<text text-anchor="middle" x="1019" y="-99.8" font-family="Times,serif" font-size="14.00" fill="#000000">AppComponent</text>
</g>
<!-- AjuroCardsModule -->
<g id="node6" class="node">
<title>AjuroCardsModule</title>
<polygon fill="#8dd3c7" stroke="#000000" points="1401.3641,-187 1398.3641,-191 1377.3641,-191 1374.3641,-187 1276.6359,-187 1276.6359,-151 1401.3641,-151 1401.3641,-187"/>
<text text-anchor="middle" x="1339" y="-164.8" font-family="Times,serif" font-size="14.00" fill="#000000">AjuroCardsModule</text>
</g>
<!-- AppComponent&#45;&gt;AjuroCardsModule -->
<g id="edge1" class="edge">
<title>AppComponent&#45;&gt;AjuroCardsModule</title>
<path fill="none" stroke="#000000" d="M1005.8201,-122.2222C1005.8201,-140.8285 1005.8201,-167 1005.8201,-167 1005.8201,-167 1266.3314,-167 1266.3314,-167"/>
<polygon fill="#000000" stroke="#000000" points="1266.3314,-170.5001 1276.3314,-167 1266.3314,-163.5001 1266.3314,-170.5001"/>
</g>
<!-- AjuroGridModule -->
<g id="node14" class="node">
<title>AjuroGridModule</title>
<polygon fill="#8dd3c7" stroke="#000000" points="1927.8655,-187 1924.8655,-191 1903.8655,-191 1900.8655,-187 1810.1345,-187 1810.1345,-151 1927.8655,-151 1927.8655,-187"/>
<text text-anchor="middle" x="1869" y="-164.8" font-family="Times,serif" font-size="14.00" fill="#000000">AjuroGridModule</text>
</g>
<!-- AppComponent&#45;&gt;AjuroGridModule -->
<g id="edge20" class="edge">
<title>AppComponent&#45;&gt;AjuroGridModule</title>
<path fill="none" stroke="#000000" d="M992.6403,-122.0579C992.6403,-126.4945 992.6403,-130 992.6403,-130 992.6403,-130 1839.5337,-130 1839.5337,-130 1839.5337,-130 1839.5337,-140.8701 1839.5337,-140.8701"/>
<polygon fill="#000000" stroke="#000000" points="1836.0337,-140.8701 1839.5337,-150.8701 1843.0337,-140.8701 1836.0337,-140.8701"/>
</g>
<!-- AppModule -->
<g id="node17" class="node">
<title>AppModule</title>
<polygon fill="#8dd3c7" stroke="#000000" points="933.6571,-187 930.6571,-191 909.6571,-191 906.6571,-187 850.3429,-187 850.3429,-151 933.6571,-151 933.6571,-187"/>
<text text-anchor="middle" x="892" y="-164.8" font-family="Times,serif" font-size="14.00" fill="#000000">AppModule</text>
</g>
<!-- AppComponent&#45;&gt;AppModule -->
<g id="edge31" class="edge">
<title>AppComponent&#45;&gt;AppModule</title>
<path fill="none" stroke="#000000" d="M966.2141,-110C947.0548,-110 930.0243,-110 930.0243,-110 930.0243,-110 930.0243,-140.9775 930.0243,-140.9775"/>
<polygon fill="#000000" stroke="#000000" points="926.5244,-140.9774 930.0243,-150.9775 933.5244,-140.9775 926.5244,-140.9774"/>
</g>
<!-- AppComponent&#45;&gt;AppModule -->
<g id="edge33" class="edge">
<title>AppComponent&#45;&gt;AppModule</title>
<path fill="none" stroke="#000000" d="M966.1361,-98C946.1436,-98 928.1223,-98 928.1223,-98 928.1223,-98 928.1223,-140.7157 928.1223,-140.7157"/>
<polygon fill="#000000" stroke="#000000" points="924.6224,-140.7157 928.1223,-150.7157 931.6224,-140.7158 924.6224,-140.7157"/>
</g>
<!-- DataModule -->
<g id="node22" class="node">
<title>DataModule</title>
<polygon fill="#8dd3c7" stroke="#000000" points="195.9762,-187 192.9762,-191 171.9762,-191 168.9762,-187 110.0238,-187 110.0238,-151 195.9762,-151 195.9762,-187"/>
<text text-anchor="middle" x="153" y="-164.8" font-family="Times,serif" font-size="14.00" fill="#000000">DataModule</text>
</g>
<!-- AppComponent&#45;&gt;DataModule -->
<g id="edge45" class="edge">
<title>AppComponent&#45;&gt;DataModule</title>
<path fill="none" stroke="#000000" d="M979.4604,-122.1679C979.4604,-124.4478 979.4604,-126 979.4604,-126 979.4604,-126 174.4941,-126 174.4941,-126 174.4941,-126 174.4941,-140.5146 174.4941,-140.5146"/>
<polygon fill="#000000" stroke="#000000" points="170.9941,-140.5145 174.4941,-150.5146 177.9941,-140.5146 170.9941,-140.5145"/>
</g>
<!-- CardsSourcesComponent -->
<g id="node2" class="node">
<title>CardsSourcesComponent</title>
<polygon fill="#ffffb3" stroke="#000000" points="1742.3061,-122 1739.3061,-126 1718.3061,-126 1715.3061,-122 1583.6939,-122 1583.6939,-86 1742.3061,-86 1742.3061,-122"/>
<text text-anchor="middle" x="1663" y="-99.8" font-family="Times,serif" font-size="14.00" fill="#000000">CardsSourcesComponent</text>
</g>
<!-- CardsSourcesComponent&#45;&gt;AjuroCardsModule -->
<g id="edge2" class="edge">
<title>CardsSourcesComponent&#45;&gt;AjuroCardsModule</title>
<path fill="none" stroke="#000000" d="M1597.2212,-122.2222C1597.2212,-140.8285 1597.2212,-167 1597.2212,-167 1597.2212,-167 1411.5081,-167 1411.5081,-167"/>
<polygon fill="#000000" stroke="#000000" points="1411.5082,-163.5001 1401.5081,-167 1411.5081,-170.5001 1411.5082,-163.5001"/>
</g>
<!-- CardsSourcesComponent&#45;&gt;AjuroCardsModule -->
<g id="edge6" class="edge">
<title>CardsSourcesComponent&#45;&gt;AjuroCardsModule</title>
<path fill="none" stroke="#000000" d="M1592.7632,-122.0225C1592.7632,-139.3734 1592.7632,-163 1592.7632,-163 1592.7632,-163 1411.4025,-163 1411.4025,-163"/>
<polygon fill="#000000" stroke="#000000" points="1411.4025,-159.5001 1401.4025,-163 1411.4024,-166.5001 1411.4025,-159.5001"/>
</g>
<!-- CardsSourcesComponent&#45;&gt;AppModule -->
<g id="edge35" class="edge">
<title>CardsSourcesComponent&#45;&gt;AppModule</title>
<path fill="none" stroke="#000000" d="M1588.3051,-122.0449C1588.3051,-129.749 1588.3051,-137 1588.3051,-137 1588.3051,-137 888.1961,-137 888.1961,-137 888.1961,-137 888.1961,-140.7566 888.1961,-140.7566"/>
<polygon fill="#000000" stroke="#000000" points="884.6962,-140.7566 888.1961,-150.7566 891.6962,-140.7566 884.6962,-140.7566"/>
</g>
<!-- CardsFilterComponent -->
<g id="node3" class="node">
<title>CardsFilterComponent</title>
<polygon fill="#ffffb3" stroke="#000000" points="1566.3188,-122 1563.3188,-126 1542.3188,-126 1539.3188,-122 1421.6812,-122 1421.6812,-86 1566.3188,-86 1566.3188,-122"/>
<text text-anchor="middle" x="1494" y="-99.8" font-family="Times,serif" font-size="14.00" fill="#000000">CardsFilterComponent</text>
</g>
<!-- CardsFilterComponent&#45;&gt;AjuroCardsModule -->
<g id="edge3" class="edge">
<title>CardsFilterComponent&#45;&gt;AjuroCardsModule</title>
<path fill="none" stroke="#000000" d="M1434.2008,-122.0091C1434.2008,-138.0494 1434.2008,-159 1434.2008,-159 1434.2008,-159 1411.4381,-159 1411.4381,-159"/>
<polygon fill="#000000" stroke="#000000" points="1411.4381,-155.5001 1401.4381,-159 1411.4381,-162.5001 1411.4381,-155.5001"/>
</g>
<!-- CardsFilterComponent&#45;&gt;AjuroCardsModule -->
<g id="edge7" class="edge">
<title>CardsFilterComponent&#45;&gt;AjuroCardsModule</title>
<path fill="none" stroke="#000000" d="M1430.0808,-122.1243C1430.0808,-136.7832 1430.0808,-155 1430.0808,-155 1430.0808,-155 1411.7615,-155 1411.7615,-155"/>
<polygon fill="#000000" stroke="#000000" points="1411.7616,-151.5001 1401.7615,-155 1411.7615,-158.5001 1411.7616,-151.5001"/>
</g>
<!-- CardsFilterComponent&#45;&gt;AppModule -->
<g id="edge37" class="edge">
<title>CardsFilterComponent&#45;&gt;AppModule</title>
<path fill="none" stroke="#000000" d="M1425.9608,-122.2015C1425.9608,-128.028 1425.9608,-133 1425.9608,-133 1425.9608,-133 875.5213,-133 875.5213,-133 875.5213,-133 875.5213,-140.5782 875.5213,-140.5782"/>
<polygon fill="#000000" stroke="#000000" points="872.0214,-140.5781 875.5213,-150.5782 879.0214,-140.5782 872.0214,-140.5781"/>
</g>
<!-- CardsListComponent -->
<g id="node4" class="node">
<title>CardsListComponent</title>
<polygon fill="#ffffb3" stroke="#000000" points="1403.7674,-122 1400.7674,-126 1379.7674,-126 1376.7674,-122 1268.2326,-122 1268.2326,-86 1403.7674,-86 1403.7674,-122"/>
<text text-anchor="middle" x="1336" y="-99.8" font-family="Times,serif" font-size="14.00" fill="#000000">CardsListComponent</text>
</g>
<!-- CardsListComponent&#45;&gt;AjuroCardsModule -->
<g id="edge4" class="edge">
<title>CardsListComponent&#45;&gt;AjuroCardsModule</title>
<path fill="none" stroke="#000000" d="M1359.8107,-122.1061C1359.8107,-122.1061 1359.8107,-140.991 1359.8107,-140.991"/>
<polygon fill="#000000" stroke="#000000" points="1356.3108,-140.9909 1359.8107,-150.991 1363.3108,-140.991 1356.3108,-140.9909"/>
</g>
<!-- CardsListComponent&#45;&gt;AjuroCardsModule -->
<g id="edge8" class="edge">
<title>CardsListComponent&#45;&gt;AjuroCardsModule</title>
<path fill="none" stroke="#000000" d="M1318.1893,-122.1061C1318.1893,-122.1061 1318.1893,-140.991 1318.1893,-140.991"/>
<polygon fill="#000000" stroke="#000000" points="1314.6894,-140.9909 1318.1893,-150.991 1321.6894,-140.991 1314.6894,-140.9909"/>
</g>
<!-- CardsListComponent&#45;&gt;AppModule -->
<g id="edge36" class="edge">
<title>CardsListComponent&#45;&gt;AppModule</title>
<path fill="none" stroke="#000000" d="M1272.3422,-122.1505C1272.3422,-134.2708 1272.3422,-148 1272.3422,-148 1272.3422,-148 931.9262,-148 931.9262,-148 931.9262,-148 931.9262,-148.292 931.9262,-148.292"/>
<polygon fill="#000000" stroke="#000000" points="928.4266,-140.9198 931.9262,-150.92 935.4266,-140.9201 928.4266,-140.9198"/>
</g>
<!-- CardsPreviewComponent -->
<g id="node5" class="node">
<title>CardsPreviewComponent</title>
<polygon fill="#ffffb3" stroke="#000000" points="1249.8585,-122 1246.8585,-126 1225.8585,-126 1222.8585,-122 1090.1415,-122 1090.1415,-86 1249.8585,-86 1249.8585,-122"/>
<text text-anchor="middle" x="1170" y="-99.8" font-family="Times,serif" font-size="14.00" fill="#000000">CardsPreviewComponent</text>
</g>
<!-- CardsPreviewComponent&#45;&gt;AjuroCardsModule -->
<g id="edge5" class="edge">
<title>CardsPreviewComponent&#45;&gt;AjuroCardsModule</title>
<path fill="none" stroke="#000000" d="M1243.2492,-122.0225C1243.2492,-139.3734 1243.2492,-163 1243.2492,-163 1243.2492,-163 1266.4695,-163 1266.4695,-163"/>
<polygon fill="#000000" stroke="#000000" points="1266.4695,-166.5001 1276.4695,-163 1266.4694,-159.5001 1266.4695,-166.5001"/>
</g>
<!-- CardsPreviewComponent&#45;&gt;AjuroCardsModule -->
<g id="edge9" class="edge">
<title>CardsPreviewComponent&#45;&gt;AjuroCardsModule</title>
<path fill="none" stroke="#000000" d="M1246.5892,-122.0091C1246.5892,-138.0494 1246.5892,-159 1246.5892,-159 1246.5892,-159 1266.5923,-159 1266.5923,-159"/>
<polygon fill="#000000" stroke="#000000" points="1266.5924,-162.5001 1276.5923,-159 1266.5923,-155.5001 1266.5924,-162.5001"/>
</g>
<!-- CardsPreviewComponent&#45;&gt;AppModule -->
<g id="edge38" class="edge">
<title>CardsPreviewComponent&#45;&gt;AppModule</title>
<path fill="none" stroke="#000000" d="M1129.0454,-122.1243C1129.0454,-136.7832 1129.0454,-155 1129.0454,-155 1129.0454,-155 943.8333,-155 943.8333,-155"/>
<polygon fill="#000000" stroke="#000000" points="943.8333,-151.5001 933.8333,-155 943.8333,-158.5001 943.8333,-151.5001"/>
</g>
<!-- AppComponent  -->
<g id="node7" class="node">
<title>AppComponent </title>
<polygon fill="#fb8072" stroke="#000000" points="1074.439,-252 965.561,-252 965.561,-216 1074.439,-216 1074.439,-252"/>
<text text-anchor="middle" x="1020" y="-229.8" font-family="Times,serif" font-size="14.00" fill="#000000">AppComponent </text>
</g>
<!-- AjuroCardsModule&#45;&gt;AppComponent  -->
<g id="edge10" class="edge">
<title>AjuroCardsModule&#45;&gt;AppComponent </title>
<path fill="none" stroke="#000000" stroke-dasharray="5,2" d="M1276.5405,-175C1186.8309,-175 1032.1799,-175 1032.1799,-175 1032.1799,-175 1032.1799,-205.9775 1032.1799,-205.9775"/>
<polygon fill="#000000" stroke="#000000" points="1028.68,-205.9774 1032.1799,-215.9775 1035.68,-205.9775 1028.68,-205.9774"/>
</g>
<!-- AjuroCardsModule&#45;&gt;AppComponent  -->
<g id="edge15" class="edge">
<title>AjuroCardsModule&#45;&gt;AppComponent </title>
<path fill="none" stroke="#000000" stroke-dasharray="1,5" d="M1276.5411,-171C1183.4153,-171 1019,-171 1019,-171 1019,-171 1019,-205.7778 1019,-205.7778"/>
<polygon fill="#000000" stroke="#000000" points="1015.5001,-205.7778 1019,-215.7778 1022.5001,-205.7778 1015.5001,-205.7778"/>
</g>
<!-- CardsSourcesComponent  -->
<g id="node8" class="node">
<title>CardsSourcesComponent </title>
<polygon fill="#fb8072" stroke="#000000" points="1419.8059,-252 1258.1941,-252 1258.1941,-216 1419.8059,-216 1419.8059,-252"/>
<text text-anchor="middle" x="1339" y="-229.8" font-family="Times,serif" font-size="14.00" fill="#000000">CardsSourcesComponent </text>
</g>
<!-- AjuroCardsModule&#45;&gt;CardsSourcesComponent  -->
<g id="edge11" class="edge">
<title>AjuroCardsModule&#45;&gt;CardsSourcesComponent </title>
<path fill="none" stroke="#000000" stroke-dasharray="5,2" d="M1318.1893,-187.1061C1318.1893,-187.1061 1318.1893,-205.991 1318.1893,-205.991"/>
<polygon fill="#000000" stroke="#000000" points="1314.6894,-205.9909 1318.1893,-215.991 1321.6894,-205.991 1314.6894,-205.9909"/>
</g>
<!-- AjuroCardsModule&#45;&gt;CardsSourcesComponent  -->
<g id="edge16" class="edge">
<title>AjuroCardsModule&#45;&gt;CardsSourcesComponent </title>
<path fill="none" stroke="#000000" stroke-dasharray="1,5" d="M1359.8107,-187.1061C1359.8107,-187.1061 1359.8107,-205.991 1359.8107,-205.991"/>
<polygon fill="#000000" stroke="#000000" points="1356.3108,-205.9909 1359.8107,-215.991 1363.3108,-205.991 1356.3108,-205.9909"/>
</g>
<!-- CardsFilterComponent  -->
<g id="node9" class="node">
<title>CardsFilterComponent </title>
<polygon fill="#fb8072" stroke="#000000" points="1239.8185,-252 1092.1815,-252 1092.1815,-216 1239.8185,-216 1239.8185,-252"/>
<text text-anchor="middle" x="1166" y="-229.8" font-family="Times,serif" font-size="14.00" fill="#000000">CardsFilterComponent </text>
</g>
<!-- AjuroCardsModule&#45;&gt;CardsFilterComponent  -->
<g id="edge12" class="edge">
<title>AjuroCardsModule&#45;&gt;CardsFilterComponent </title>
<path fill="none" stroke="#000000" stroke-dasharray="5,2" d="M1276.543,-179C1226.9893,-179 1166,-179 1166,-179 1166,-179 1166,-205.9909 1166,-205.9909"/>
<polygon fill="#000000" stroke="#000000" points="1162.5001,-205.9909 1166,-215.9909 1169.5001,-205.991 1162.5001,-205.9909"/>
</g>
<!-- AjuroCardsModule&#45;&gt;CardsFilterComponent  -->
<g id="edge17" class="edge">
<title>AjuroCardsModule&#45;&gt;CardsFilterComponent </title>
<path fill="none" stroke="#000000" stroke-dasharray="1,5" d="M1276.5517,-183C1240.7877,-183 1202.9546,-183 1202.9546,-183 1202.9546,-183 1202.9546,-205.8757 1202.9546,-205.8757"/>
<polygon fill="#000000" stroke="#000000" points="1199.4547,-205.8757 1202.9546,-215.8757 1206.4547,-205.8757 1199.4547,-205.8757"/>
</g>
<!-- CardsListComponent  -->
<g id="node10" class="node">
<title>CardsListComponent </title>
<polygon fill="#fb8072" stroke="#000000" points="1758.7675,-252 1619.2325,-252 1619.2325,-216 1758.7675,-216 1758.7675,-252"/>
<text text-anchor="middle" x="1689" y="-229.8" font-family="Times,serif" font-size="14.00" fill="#000000">CardsListComponent </text>
</g>
<!-- AjuroCardsModule&#45;&gt;CardsListComponent  -->
<g id="edge13" class="edge">
<title>AjuroCardsModule&#45;&gt;CardsListComponent </title>
<path fill="none" stroke="#000000" stroke-dasharray="5,2" d="M1401.6811,-171C1505.3543,-171 1701.2241,-171 1701.2241,-171 1701.2241,-171 1701.2241,-205.7778 1701.2241,-205.7778"/>
<polygon fill="#000000" stroke="#000000" points="1697.7242,-205.7778 1701.2241,-215.7778 1704.7242,-205.7778 1697.7242,-205.7778"/>
</g>
<!-- AjuroCardsModule&#45;&gt;CardsListComponent  -->
<g id="edge18" class="edge">
<title>AjuroCardsModule&#45;&gt;CardsListComponent </title>
<path fill="none" stroke="#000000" stroke-dasharray="1,5" d="M1401.7117,-175C1495.2145,-175 1660.2952,-175 1660.2952,-175 1660.2952,-175 1660.2952,-205.9775 1660.2952,-205.9775"/>
<polygon fill="#000000" stroke="#000000" points="1656.7953,-205.9774 1660.2952,-215.9775 1663.7953,-205.9775 1656.7953,-205.9774"/>
</g>
<!-- CardsPreviewComponent  -->
<g id="node11" class="node">
<title>CardsPreviewComponent </title>
<polygon fill="#fb8072" stroke="#000000" points="1601.8588,-252 1438.1412,-252 1438.1412,-216 1601.8588,-216 1601.8588,-252"/>
<text text-anchor="middle" x="1520" y="-229.8" font-family="Times,serif" font-size="14.00" fill="#000000">CardsPreviewComponent </text>
</g>
<!-- AjuroCardsModule&#45;&gt;CardsPreviewComponent  -->
<g id="edge14" class="edge">
<title>AjuroCardsModule&#45;&gt;CardsPreviewComponent </title>
<path fill="none" stroke="#000000" stroke-dasharray="5,2" d="M1401.479,-179C1455.0173,-179 1523.5464,-179 1523.5464,-179 1523.5464,-179 1523.5464,-205.9909 1523.5464,-205.9909"/>
<polygon fill="#000000" stroke="#000000" points="1520.0465,-205.9909 1523.5464,-215.9909 1527.0465,-205.991 1520.0465,-205.9909"/>
</g>
<!-- AjuroCardsModule&#45;&gt;CardsPreviewComponent  -->
<g id="edge19" class="edge">
<title>AjuroCardsModule&#45;&gt;CardsPreviewComponent </title>
<path fill="none" stroke="#000000" stroke-dasharray="1,5" d="M1401.6673,-183C1439.6893,-183 1480.9336,-183 1480.9336,-183 1480.9336,-183 1480.9336,-205.8757 1480.9336,-205.8757"/>
<polygon fill="#000000" stroke="#000000" points="1477.4337,-205.8757 1480.9336,-215.8757 1484.4337,-205.8757 1477.4337,-205.8757"/>
</g>
<!-- GridFilterComponent -->
<g id="node12" class="node">
<title>GridFilterComponent</title>
<polygon fill="#ffffb3" stroke="#000000" points="2088.8202,-122 2085.8202,-126 2064.8202,-126 2061.8202,-122 1951.1798,-122 1951.1798,-86 2088.8202,-86 2088.8202,-122"/>
<text text-anchor="middle" x="2020" y="-99.8" font-family="Times,serif" font-size="14.00" fill="#000000">GridFilterComponent</text>
</g>
<!-- GridFilterComponent&#45;&gt;AjuroGridModule -->
<g id="edge21" class="edge">
<title>GridFilterComponent&#45;&gt;AjuroGridModule</title>
<path fill="none" stroke="#000000" d="M2044.8255,-122.1289C2044.8255,-142.5724 2044.8255,-173 2044.8255,-173 2044.8255,-173 1938.0365,-173 1938.0365,-173"/>
<polygon fill="#000000" stroke="#000000" points="1938.0365,-169.5001 1928.0365,-173 1938.0364,-176.5001 1938.0365,-169.5001"/>
</g>
<!-- GridFilterComponent&#45;&gt;AjuroGridModule -->
<g id="edge23" class="edge">
<title>GridFilterComponent&#45;&gt;AjuroGridModule</title>
<path fill="none" stroke="#000000" d="M2066.7427,-122.0449C2066.7427,-143.6623 2066.7427,-177 2066.7427,-177 2066.7427,-177 1938.0615,-177 1938.0615,-177"/>
<polygon fill="#000000" stroke="#000000" points="1938.0615,-173.5001 1928.0615,-177 1938.0614,-180.5001 1938.0615,-173.5001"/>
</g>
<!-- GridFilterComponent&#45;&gt;AppModule -->
<g id="edge39" class="edge">
<title>GridFilterComponent&#45;&gt;AppModule</title>
<path fill="none" stroke="#000000" d="M1979.0739,-122.1274C1979.0739,-132.7109 1979.0739,-144 1979.0739,-144 1979.0739,-144 913.5456,-144 913.5456,-144 913.5456,-144 913.5456,-144.6831 913.5456,-144.6831"/>
<polygon fill="#000000" stroke="#000000" points="910.0457,-140.8313 913.5456,-150.8314 917.0457,-140.8314 910.0457,-140.8313"/>
</g>
<!-- GridAreaComponent -->
<g id="node13" class="node">
<title>GridAreaComponent</title>
<polygon fill="#ffffb3" stroke="#000000" points="1933.1867,-122 1930.1867,-126 1909.1867,-126 1906.1867,-122 1798.8133,-122 1798.8133,-86 1933.1867,-86 1933.1867,-122"/>
<text text-anchor="middle" x="1866" y="-99.8" font-family="Times,serif" font-size="14.00" fill="#000000">GridAreaComponent</text>
</g>
<!-- GridAreaComponent&#45;&gt;AjuroGridModule -->
<g id="edge22" class="edge">
<title>GridAreaComponent&#45;&gt;AjuroGridModule</title>
<path fill="none" stroke="#000000" d="M1869,-122.1061C1869,-122.1061 1869,-140.991 1869,-140.991"/>
<polygon fill="#000000" stroke="#000000" points="1865.5001,-140.9909 1869,-150.991 1872.5001,-140.991 1865.5001,-140.9909"/>
</g>
<!-- GridAreaComponent&#45;&gt;AjuroGridModule -->
<g id="edge24" class="edge">
<title>GridAreaComponent&#45;&gt;AjuroGridModule</title>
<path fill="none" stroke="#000000" d="M1898.4664,-122.1061C1898.4664,-122.1061 1898.4664,-140.991 1898.4664,-140.991"/>
<polygon fill="#000000" stroke="#000000" points="1894.9664,-140.9909 1898.4664,-150.991 1901.9664,-140.991 1894.9664,-140.9909"/>
</g>
<!-- GridAreaComponent&#45;&gt;AppModule -->
<g id="edge42" class="edge">
<title>GridAreaComponent&#45;&gt;AppModule</title>
<path fill="none" stroke="#000000" d="M1804.487,-122.0664C1804.487,-131.4587 1804.487,-141 1804.487,-141 1804.487,-141 900.8708,-141 900.8708,-141 900.8708,-141 900.8708,-141.9793 900.8708,-141.9793"/>
<polygon fill="#000000" stroke="#000000" points="897.3709,-140.793 900.8708,-150.793 904.3709,-140.7931 897.3709,-140.793"/>
</g>
<!-- AjuroGridModule&#45;&gt;AppComponent  -->
<g id="edge25" class="edge">
<title>AjuroGridModule&#45;&gt;AppComponent </title>
<path fill="none" stroke="#000000" stroke-dasharray="5,2" d="M1857.2135,-187.1097C1857.2135,-196.897 1857.2135,-207 1857.2135,-207 1857.2135,-207 1058.5396,-207 1058.5396,-207 1058.5396,-207 1058.5396,-207.8841 1058.5396,-207.8841"/>
<polygon fill="#000000" stroke="#000000" points="1055.0398,-205.8408 1058.5396,-215.8408 1062.0398,-205.8409 1055.0398,-205.8408"/>
</g>
<!-- AjuroGridModule&#45;&gt;AppComponent  -->
<g id="edge28" class="edge">
<title>AjuroGridModule&#45;&gt;AppComponent </title>
<path fill="none" stroke="#000000" stroke-dasharray="1,5" d="M1833.6404,-187.207C1833.6404,-192.5549 1833.6404,-197 1833.6404,-197 1833.6404,-197 1045.3598,-197 1045.3598,-197 1045.3598,-197 1045.3598,-205.9336 1045.3598,-205.9336"/>
<polygon fill="#000000" stroke="#000000" points="1041.8598,-205.9335 1045.3598,-215.9336 1048.8598,-205.9336 1041.8598,-205.9335"/>
</g>
<!-- GridFilterComponent  -->
<g id="node15" class="node">
<title>GridFilterComponent </title>
<polygon fill="#fb8072" stroke="#000000" points="1939.3199,-252 1798.6801,-252 1798.6801,-216 1939.3199,-216 1939.3199,-252"/>
<text text-anchor="middle" x="1869" y="-229.8" font-family="Times,serif" font-size="14.00" fill="#000000">GridFilterComponent </text>
</g>
<!-- AjuroGridModule&#45;&gt;GridFilterComponent  -->
<g id="edge26" class="edge">
<title>AjuroGridModule&#45;&gt;GridFilterComponent </title>
<path fill="none" stroke="#000000" stroke-dasharray="5,2" d="M1880.7865,-187.1061C1880.7865,-187.1061 1880.7865,-205.991 1880.7865,-205.991"/>
<polygon fill="#000000" stroke="#000000" points="1877.2866,-205.9909 1880.7865,-215.991 1884.2866,-205.991 1877.2866,-205.9909"/>
</g>
<!-- AjuroGridModule&#45;&gt;GridFilterComponent  -->
<g id="edge29" class="edge">
<title>AjuroGridModule&#45;&gt;GridFilterComponent </title>
<path fill="none" stroke="#000000" stroke-dasharray="1,5" d="M1904.3596,-187.1061C1904.3596,-187.1061 1904.3596,-205.991 1904.3596,-205.991"/>
<polygon fill="#000000" stroke="#000000" points="1900.8597,-205.9909 1904.3596,-215.991 1907.8597,-205.991 1900.8597,-205.9909"/>
</g>
<!-- GridAreaComponent  -->
<g id="node16" class="node">
<title>GridAreaComponent </title>
<polygon fill="#fb8072" stroke="#000000" points="2094.687,-252 1957.313,-252 1957.313,-216 2094.687,-216 2094.687,-252"/>
<text text-anchor="middle" x="2026" y="-229.8" font-family="Times,serif" font-size="14.00" fill="#000000">GridAreaComponent </text>
</g>
<!-- AjuroGridModule&#45;&gt;GridAreaComponent  -->
<g id="edge27" class="edge">
<title>AjuroGridModule&#45;&gt;GridAreaComponent </title>
<path fill="none" stroke="#000000" stroke-dasharray="5,2" d="M1928.0648,-180C1971.4678,-180 2022.9083,-180 2022.9083,-180 2022.9083,-180 2022.9083,-205.7181 2022.9083,-205.7181"/>
<polygon fill="#000000" stroke="#000000" points="2019.4084,-205.718 2022.9083,-215.7181 2026.4084,-205.7181 2019.4084,-205.718"/>
</g>
<!-- AjuroGridModule&#45;&gt;GridAreaComponent  -->
<g id="edge30" class="edge">
<title>AjuroGridModule&#45;&gt;GridAreaComponent </title>
<path fill="none" stroke="#000000" stroke-dasharray="1,5" d="M1928.0466,-184C1963.1899,-184 2000.9911,-184 2000.9911,-184 2000.9911,-184 2000.9911,-205.9489 2000.9911,-205.9489"/>
<polygon fill="#000000" stroke="#000000" points="1997.4912,-205.9488 2000.9911,-215.9489 2004.4912,-205.9489 1997.4912,-205.9488"/>
</g>
<!-- AppModule&#45;&gt;AppComponent  -->
<g id="edge32" class="edge">
<title>AppModule&#45;&gt;AppComponent </title>
<path fill="none" stroke="#000000" stroke-dasharray="1,5" d="M905.9427,-187.0091C905.9427,-203.0494 905.9427,-224 905.9427,-224 905.9427,-224 955.3098,-224 955.3098,-224"/>
<polygon fill="#000000" stroke="#000000" points="955.3099,-227.5001 965.3098,-224 955.3098,-220.5001 955.3099,-227.5001"/>
</g>
<!-- AppModule&#45;&gt;AppComponent  -->
<g id="edge43" class="edge">
<title>AppModule&#45;&gt;AppComponent </title>
<path fill="none" stroke="#000000" stroke-dasharray="1,5" d="M878.0573,-187.2667C878.0573,-205.5552 878.0573,-231 878.0573,-231 878.0573,-231 955.5272,-231 955.5272,-231"/>
<polygon fill="#000000" stroke="#000000" points="955.5272,-234.5001 965.5272,-231 955.5271,-227.5001 955.5272,-234.5001"/>
</g>
<!-- DataPresenterComponent -->
<g id="node18" class="node">
<title>DataPresenterComponent</title>
<polygon fill="#ffffb3" stroke="#000000" points="387.8417,-122 384.8417,-126 363.8417,-126 360.8417,-122 228.1583,-122 228.1583,-86 387.8417,-86 387.8417,-122"/>
<text text-anchor="middle" x="308" y="-99.8" font-family="Times,serif" font-size="14.00" fill="#000000">DataPresenterComponent</text>
</g>
<!-- DataPresenterComponent&#45;&gt;AppModule -->
<g id="edge34" class="edge">
<title>DataPresenterComponent&#45;&gt;AppModule</title>
<path fill="none" stroke="#000000" d="M308,-122.2921C308,-144.2057 308,-178 308,-178 308,-178 840.0002,-178 840.0002,-178"/>
<polygon fill="#000000" stroke="#000000" points="840.0002,-181.5001 850.0002,-178 840.0001,-174.5001 840.0002,-181.5001"/>
</g>
<!-- DataPresenterComponent&#45;&gt;DataModule -->
<g id="edge46" class="edge">
<title>DataPresenterComponent&#45;&gt;DataModule</title>
<path fill="none" stroke="#000000" d="M227.7759,-110C189.9549,-110 153,-110 153,-110 153,-110 153,-140.9775 153,-140.9775"/>
<polygon fill="#000000" stroke="#000000" points="149.5001,-140.9774 153,-150.9775 156.5001,-140.9775 149.5001,-140.9774"/>
</g>
<!-- DataPresenterComponent&#45;&gt;DataModule -->
<g id="edge47" class="edge">
<title>DataPresenterComponent&#45;&gt;DataModule</title>
<path fill="none" stroke="#000000" d="M228.0154,-98C181.3173,-98 131.5059,-98 131.5059,-98 131.5059,-98 131.5059,-140.7157 131.5059,-140.7157"/>
<polygon fill="#000000" stroke="#000000" points="128.006,-140.7157 131.5059,-150.7157 135.006,-140.7158 128.006,-140.7157"/>
</g>
<!-- MyGridApplicationComponent -->
<g id="node19" class="node">
<title>MyGridApplicationComponent</title>
<polygon fill="#ffffb3" stroke="#000000" points="598.0336,-122 405.9664,-122 405.9664,-86 598.0336,-86 598.0336,-122"/>
<text text-anchor="middle" x="502" y="-99.8" font-family="Times,serif" font-size="14.00" fill="#000000">MyGridApplicationComponent</text>
</g>
<!-- MyGridApplicationComponent&#45;&gt;AppModule -->
<g id="edge40" class="edge">
<title>MyGridApplicationComponent&#45;&gt;AppModule</title>
<path fill="none" stroke="#000000" d="M502,-122.1061C502,-141.3391 502,-169 502,-169 502,-169 840.2632,-169 840.2632,-169"/>
<polygon fill="#000000" stroke="#000000" points="840.2632,-172.5001 850.2632,-169 840.2631,-165.5001 840.2632,-172.5001"/>
</g>
<!-- RedComponentComponent -->
<g id="node20" class="node">
<title>RedComponentComponent</title>
<polygon fill="#ffffb3" stroke="#000000" points="785.7161,-122 616.2839,-122 616.2839,-86 785.7161,-86 785.7161,-122"/>
<text text-anchor="middle" x="701" y="-99.8" font-family="Times,serif" font-size="14.00" fill="#000000">RedComponentComponent</text>
</g>
<!-- RedComponentComponent&#45;&gt;AppModule -->
<g id="edge41" class="edge">
<title>RedComponentComponent&#45;&gt;AppModule</title>
<path fill="none" stroke="#000000" d="M701,-122.027C701,-138.3976 701,-160 701,-160 701,-160 840.0842,-160 840.0842,-160"/>
<polygon fill="#000000" stroke="#000000" points="840.0843,-163.5001 850.0842,-160 840.0842,-156.5001 840.0843,-163.5001"/>
</g>
<!-- DataService -->
<g id="node21" class="node">
<title>DataService</title>
<ellipse fill="#fdb462" stroke="#000000" cx="868" cy="-104" rx="58.4415" ry="18"/>
<text text-anchor="middle" x="868" y="-99.8" font-family="Times,serif" font-size="14.00" fill="#000000">DataService</text>
</g>
<!-- DataService&#45;&gt;AppModule -->
<g id="edge44" class="edge">
<title>DataService&#45;&gt;AppModule</title>
<path fill="none" stroke="#000000" d="M862.8466,-122.1061C862.8466,-122.1061 862.8466,-140.991 862.8466,-140.991"/>
<polygon fill="#000000" stroke="#000000" points="859.3467,-140.9909 862.8466,-150.991 866.3467,-140.991 859.3467,-140.9909"/>
</g>
<!-- DataModule&#45;&gt;AppComponent  -->
<g id="edge48" class="edge">
<title>DataModule&#45;&gt;AppComponent </title>
<path fill="none" stroke="#000000" stroke-dasharray="5,2" d="M193.2157,-187.1289C193.2157,-207.5724 193.2157,-238 193.2157,-238 193.2157,-238 955.4326,-238 955.4326,-238"/>
<polygon fill="#000000" stroke="#000000" points="955.4327,-241.5001 965.4326,-238 955.4326,-234.5001 955.4327,-241.5001"/>
</g>
<!-- DataModule&#45;&gt;AppComponent  -->
<g id="edge50" class="edge">
<title>DataModule&#45;&gt;AppComponent </title>
<path fill="none" stroke="#000000" stroke-dasharray="1,5" d="M190.4432,-187.0109C190.4432,-209.4852 190.4432,-245 190.4432,-245 190.4432,-245 955.2496,-245 955.2496,-245"/>
<polygon fill="#000000" stroke="#000000" points="955.2497,-248.5001 965.2496,-245 955.2496,-241.5001 955.2497,-248.5001"/>
</g>
<!-- DataPresenterComponent  -->
<g id="node23" class="node">
<title>DataPresenterComponent </title>
<polygon fill="#fb8072" stroke="#000000" points="187.842,-252 24.158,-252 24.158,-216 187.842,-216 187.842,-252"/>
<text text-anchor="middle" x="106" y="-229.8" font-family="Times,serif" font-size="14.00" fill="#000000">DataPresenterComponent </text>
</g>
<!-- DataModule&#45;&gt;DataPresenterComponent  -->
<g id="edge49" class="edge">
<title>DataModule&#45;&gt;DataPresenterComponent </title>
<path fill="none" stroke="#000000" stroke-dasharray="5,2" d="M161.7845,-187.1061C161.7845,-187.1061 161.7845,-205.991 161.7845,-205.991"/>
<polygon fill="#000000" stroke="#000000" points="158.2846,-205.9909 161.7845,-215.991 165.2846,-205.991 158.2846,-205.9909"/>
</g>
<!-- DataModule&#45;&gt;DataPresenterComponent  -->
<g id="edge51" class="edge">
<title>DataModule&#45;&gt;DataPresenterComponent </title>
<path fill="none" stroke="#000000" stroke-dasharray="1,5" d="M135.8982,-187.1061C135.8982,-187.1061 135.8982,-205.991 135.8982,-205.991"/>
<polygon fill="#000000" stroke="#000000" points="132.3983,-205.9909 135.8982,-215.991 139.3983,-205.991 132.3983,-205.9909"/>
</g>
<!-- YearPipeComponent -->
<g id="node24" class="node">
<title>YearPipeComponent</title>
<polygon fill="#ffffb3" stroke="#000000" points="3146.9173,-122 3013.0827,-122 3013.0827,-86 3146.9173,-86 3146.9173,-122"/>
<text text-anchor="middle" x="3080" y="-99.8" font-family="Times,serif" font-size="14.00" fill="#000000">YearPipeComponent</text>
</g>
<!-- PipesModule -->
<g id="node31" class="node">
<title>PipesModule</title>
<polygon fill="#8dd3c7" stroke="#000000" points="2809.8823,-187 2806.8823,-191 2785.8823,-191 2782.8823,-187 2720.1177,-187 2720.1177,-151 2809.8823,-151 2809.8823,-187"/>
<text text-anchor="middle" x="2765" y="-164.8" font-family="Times,serif" font-size="14.00" fill="#000000">PipesModule</text>
</g>
<!-- YearPipeComponent&#45;&gt;PipesModule -->
<g id="edge52" class="edge">
<title>YearPipeComponent&#45;&gt;PipesModule</title>
<path fill="none" stroke="#000000" d="M3031.9883,-122.0225C3031.9883,-139.3734 3031.9883,-163 3031.9883,-163 3031.9883,-163 2819.989,-163 2819.989,-163"/>
<polygon fill="#000000" stroke="#000000" points="2819.989,-159.5001 2809.989,-163 2819.989,-166.5001 2819.989,-159.5001"/>
</g>
<!-- DatePipeComponent -->
<g id="node25" class="node">
<title>DatePipeComponent</title>
<polygon fill="#ffffb3" stroke="#000000" points="2995.1471,-122 2862.8529,-122 2862.8529,-86 2995.1471,-86 2995.1471,-122"/>
<text text-anchor="middle" x="2929" y="-99.8" font-family="Times,serif" font-size="14.00" fill="#000000">DatePipeComponent</text>
</g>
<!-- DatePipeComponent&#45;&gt;PipesModule -->
<g id="edge53" class="edge">
<title>DatePipeComponent&#45;&gt;PipesModule</title>
<path fill="none" stroke="#000000" d="M2878.4657,-122.2396C2878.4657,-137.5706 2878.4657,-157 2878.4657,-157 2878.4657,-157 2820.1707,-157 2820.1707,-157"/>
<polygon fill="#000000" stroke="#000000" points="2820.1707,-153.5001 2810.1707,-157 2820.1706,-160.5001 2820.1707,-153.5001"/>
</g>
<!-- TitleCasePipeComponent -->
<g id="node26" class="node">
<title>TitleCasePipeComponent</title>
<polygon fill="#ffffb3" stroke="#000000" points="2844.8697,-122 2685.1303,-122 2685.1303,-86 2844.8697,-86 2844.8697,-122"/>
<text text-anchor="middle" x="2765" y="-99.8" font-family="Times,serif" font-size="14.00" fill="#000000">TitleCasePipeComponent</text>
</g>
<!-- TitleCasePipeComponent&#45;&gt;PipesModule -->
<g id="edge54" class="edge">
<title>TitleCasePipeComponent&#45;&gt;PipesModule</title>
<path fill="none" stroke="#000000" d="M2765,-122.1061C2765,-122.1061 2765,-140.991 2765,-140.991"/>
<polygon fill="#000000" stroke="#000000" points="2761.5001,-140.9909 2765,-150.991 2768.5001,-140.991 2761.5001,-140.9909"/>
</g>
<!-- AsyncObservablePipeComponent -->
<g id="node27" class="node">
<title>AsyncObservablePipeComponent</title>
<polygon fill="#ffffb3" stroke="#000000" points="2666.7324,-122 2461.2676,-122 2461.2676,-86 2666.7324,-86 2666.7324,-122"/>
<text text-anchor="middle" x="2564" y="-99.8" font-family="Times,serif" font-size="14.00" fill="#000000">AsyncObservablePipeComponent</text>
</g>
<!-- AsyncObservablePipeComponent&#45;&gt;PipesModule -->
<g id="edge55" class="edge">
<title>AsyncObservablePipeComponent&#45;&gt;PipesModule</title>
<path fill="none" stroke="#000000" d="M2651.1438,-122.1243C2651.1438,-136.7832 2651.1438,-155 2651.1438,-155 2651.1438,-155 2710.001,-155 2710.001,-155"/>
<polygon fill="#000000" stroke="#000000" points="2710.001,-158.5001 2720.001,-155 2710.001,-151.5001 2710.001,-158.5001"/>
</g>
<!-- CurrencyPipeComponent -->
<g id="node28" class="node">
<title>CurrencyPipeComponent</title>
<polygon fill="#ffffb3" stroke="#000000" points="2443.3075,-122 2284.6925,-122 2284.6925,-86 2443.3075,-86 2443.3075,-122"/>
<text text-anchor="middle" x="2364" y="-99.8" font-family="Times,serif" font-size="14.00" fill="#000000">CurrencyPipeComponent</text>
</g>
<!-- CurrencyPipeComponent&#45;&gt;PipesModule -->
<g id="edge56" class="edge">
<title>CurrencyPipeComponent&#45;&gt;PipesModule</title>
<path fill="none" stroke="#000000" d="M2384.3477,-122.0091C2384.3477,-138.0494 2384.3477,-159 2384.3477,-159 2384.3477,-159 2709.8394,-159 2709.8394,-159"/>
<polygon fill="#000000" stroke="#000000" points="2709.8394,-162.5001 2719.8394,-159 2709.8393,-155.5001 2709.8394,-162.5001"/>
</g>
<!-- JsonPipeComponent -->
<g id="node29" class="node">
<title>JsonPipeComponent</title>
<polygon fill="#ffffb3" stroke="#000000" points="2266.6094,-122 2135.3906,-122 2135.3906,-86 2266.6094,-86 2266.6094,-122"/>
<text text-anchor="middle" x="2201" y="-99.8" font-family="Times,serif" font-size="14.00" fill="#000000">JsonPipeComponent</text>
</g>
<!-- JsonPipeComponent&#45;&gt;PipesModule -->
<g id="edge57" class="edge">
<title>JsonPipeComponent&#45;&gt;PipesModule</title>
<path fill="none" stroke="#000000" d="M2201,-122.0336C2201,-139.0597 2201,-162 2201,-162 2201,-162 2709.7989,-162 2709.7989,-162"/>
<polygon fill="#000000" stroke="#000000" points="2709.7989,-165.5001 2719.7989,-162 2709.7989,-158.5001 2709.7989,-165.5001"/>
</g>
<!-- DiffToColorPipeComponent -->
<g id="node30" class="node">
<title>DiffToColorPipeComponent</title>
<polygon fill="#ffffb3" stroke="#000000" points="3341.479,-122 3164.521,-122 3164.521,-86 3341.479,-86 3341.479,-122"/>
<text text-anchor="middle" x="3253" y="-99.8" font-family="Times,serif" font-size="14.00" fill="#000000">DiffToColorPipeComponent</text>
</g>
<!-- DiffToColorPipeComponent&#45;&gt;PipesModule -->
<g id="edge58" class="edge">
<title>DiffToColorPipeComponent&#45;&gt;PipesModule</title>
<path fill="none" stroke="#000000" d="M3184.7919,-122.1061C3184.7919,-141.3391 3184.7919,-169 3184.7919,-169 3184.7919,-169 2819.9251,-169 2819.9251,-169"/>
<polygon fill="#000000" stroke="#000000" points="2819.9251,-165.5001 2809.9251,-169 2819.9251,-172.5001 2819.9251,-165.5001"/>
</g>
<!-- YearPipeComponent  -->
<g id="node32" class="node">
<title>YearPipeComponent </title>
<polygon fill="#fb8072" stroke="#000000" points="2462.4166,-252 2325.5834,-252 2325.5834,-216 2462.4166,-216 2462.4166,-252"/>
<text text-anchor="middle" x="2394" y="-229.8" font-family="Times,serif" font-size="14.00" fill="#000000">YearPipeComponent </text>
</g>
<!-- PipesModule&#45;&gt;YearPipeComponent  -->
<g id="edge59" class="edge">
<title>PipesModule&#45;&gt;YearPipeComponent </title>
<path fill="none" stroke="#000000" stroke-dasharray="5,2" d="M2719.8421,-166C2633.2026,-166 2452.1438,-166 2452.1438,-166 2452.1438,-166 2452.1438,-205.7772 2452.1438,-205.7772"/>
<polygon fill="#000000" stroke="#000000" points="2448.6438,-205.7772 2452.1438,-215.7772 2455.6438,-205.7773 2448.6438,-205.7772"/>
</g>
<!-- DatePipeComponent  -->
<g id="node33" class="node">
<title>DatePipeComponent </title>
<polygon fill="#fb8072" stroke="#000000" points="3205.1467,-252 3068.8533,-252 3068.8533,-216 3205.1467,-216 3205.1467,-252"/>
<text text-anchor="middle" x="3137" y="-229.8" font-family="Times,serif" font-size="14.00" fill="#000000">DatePipeComponent </text>
</g>
<!-- PipesModule&#45;&gt;DatePipeComponent  -->
<g id="edge60" class="edge">
<title>PipesModule&#45;&gt;DatePipeComponent </title>
<path fill="none" stroke="#000000" stroke-dasharray="5,2" d="M2810.1699,-175C2903.2597,-175 3107.8175,-175 3107.8175,-175 3107.8175,-175 3107.8175,-205.9775 3107.8175,-205.9775"/>
<polygon fill="#000000" stroke="#000000" points="3104.3176,-205.9774 3107.8175,-215.9775 3111.3176,-205.9775 3104.3176,-205.9774"/>
</g>
<!-- TitleCasePipeComponent  -->
<g id="node34" class="node">
<title>TitleCasePipeComponent </title>
<polygon fill="#fb8072" stroke="#000000" points="3050.87,-252 2887.13,-252 2887.13,-216 3050.87,-216 3050.87,-252"/>
<text text-anchor="middle" x="2969" y="-229.8" font-family="Times,serif" font-size="14.00" fill="#000000">TitleCasePipeComponent </text>
</g>
<!-- PipesModule&#45;&gt;TitleCasePipeComponent  -->
<g id="edge61" class="edge">
<title>PipesModule&#45;&gt;TitleCasePipeComponent </title>
<path fill="none" stroke="#000000" stroke-dasharray="5,2" d="M2809.949,-181C2862.188,-181 2941.3193,-181 2941.3193,-181 2941.3193,-181 2941.3193,-205.7604 2941.3193,-205.7604"/>
<polygon fill="#000000" stroke="#000000" points="2937.8193,-205.7604 2941.3193,-215.7604 2944.8193,-205.7604 2937.8193,-205.7604"/>
</g>
<!-- AsyncObservablePipeComponent  -->
<g id="node35" class="node">
<title>AsyncObservablePipeComponent </title>
<polygon fill="#fb8072" stroke="#000000" points="2869.7323,-252 2660.2677,-252 2660.2677,-216 2869.7323,-216 2869.7323,-252"/>
<text text-anchor="middle" x="2765" y="-229.8" font-family="Times,serif" font-size="14.00" fill="#000000">AsyncObservablePipeComponent </text>
</g>
<!-- PipesModule&#45;&gt;AsyncObservablePipeComponent  -->
<g id="edge62" class="edge">
<title>PipesModule&#45;&gt;AsyncObservablePipeComponent </title>
<path fill="none" stroke="#000000" stroke-dasharray="5,2" d="M2765,-187.1061C2765,-187.1061 2765,-205.991 2765,-205.991"/>
<polygon fill="#000000" stroke="#000000" points="2761.5001,-205.9909 2765,-215.991 2768.5001,-205.991 2761.5001,-205.9909"/>
</g>
<!-- CurrencyPipeComponent  -->
<g id="node36" class="node">
<title>CurrencyPipeComponent </title>
<polygon fill="#fb8072" stroke="#000000" points="2641.8073,-252 2480.1927,-252 2480.1927,-216 2641.8073,-216 2641.8073,-252"/>
<text text-anchor="middle" x="2561" y="-229.8" font-family="Times,serif" font-size="14.00" fill="#000000">CurrencyPipeComponent </text>
</g>
<!-- PipesModule&#45;&gt;CurrencyPipeComponent  -->
<g id="edge63" class="edge">
<title>PipesModule&#45;&gt;CurrencyPipeComponent </title>
<path fill="none" stroke="#000000" stroke-dasharray="5,2" d="M2719.9788,-169C2659.903,-169 2561,-169 2561,-169 2561,-169 2561,-205.8939 2561,-205.8939"/>
<polygon fill="#000000" stroke="#000000" points="2557.5001,-205.8938 2561,-215.8939 2564.5001,-205.8939 2557.5001,-205.8938"/>
</g>
</g>
</svg>
